<?xml version="1.0" encoding="UTF-8" standalone="no"?>
<!-- Created with Inkscape (http://www.inkscape.org/) -->

<svg
   xmlns:dc="http://purl.org/dc/elements/1.1/"
   xmlns:cc="http://creativecommons.org/ns#"
   xmlns:rdf="http://www.w3.org/1999/02/22-rdf-syntax-ns#"
   xmlns:svg="http://www.w3.org/2000/svg"
   xmlns="http://www.w3.org/2000/svg"
   xmlns:sodipodi="http://sodipodi.sourceforge.net/DTD/sodipodi-0.dtd"
   xmlns:inkscape="http://www.inkscape.org/namespaces/inkscape"
   width="50"
   height="100.29809"
   id="svg3403"
   version="1.1"
   inkscape:version="0.48.5 r10040"
   sodipodi:docname="404.svg">
  <defs
     id="defs3405" />
  <sodipodi:namedview
     id="base"
     pagecolor="#ffffff"
     bordercolor="#666666"
     borderopacity="1.0"
     inkscape:pageopacity="0.0"
     inkscape:pageshadow="2"
     inkscape:zoom="2.8"
     inkscape:cx="-29.671781"
     inkscape:cy="26.08634"
     inkscape:document-units="px"
     inkscape:current-layer="layer1"
     showgrid="false"
     fit-margin-top="0"
     fit-margin-left="0"
     fit-margin-right="0"
     fit-margin-bottom="0"
     inkscape:window-width="1280"
     inkscape:window-height="737"
     inkscape:window-x="-4"
     inkscape:window-y="-4"
     inkscape:window-maximized="1" />
  <metadata
     id="metadata3408">
    <rdf:RDF>
      <cc:Work
         rdf:about="">
        <dc:format>image/svg+xml</dc:format>
        <dc:type
           rdf:resource="http://purl.org/dc/dcmitype/StillImage" />
        <dc:title />
      </cc:Work>
    </rdf:RDF>
  </metadata>
  <g
     inkscape:label="Capa 1"
     inkscape:groupmode="layer"
     id="layer1"
     transform="translate(-631.63271,-783.1513)">
    <g
       transform="matrix(2.2272845,0,0,2.2272845,-359.58224,84.036491)"
       id="g3411">
      <path
         sodipodi:nodetypes="ccccccccccc"
         inkscape:connector-curvature="0"
         id="path2996-0-1-8-8-5-7-9-5"
         d="m 456.50793,334.32935 c 0.7061,1.99522 1.897,3.64213 3.1396,5.17121 0.89892,0.68611 3.47878,-4.059 5.07076,-5.14547 1.16336,0.26552 1.64358,0.30768 1.95194,0.20366 0.7069,-0.23859 0.98963,-0.91653 0.69779,-1.62422 -0.12079,-0.16973 0.024,-0.1878 -1.20317,-0.60449 -1.27312,-0.39484 -1.356,-0.35705 -1.87047,-0.3512 -1.28681,0.82397 -2.96153,3.26233 -3.98261,4.46413 l -1.55182,-2.52334 -1.44173,-2.33174 c -0.0224,0.13319 -0.18574,0.14722 -0.81029,2.74146 z"
         style="fill:#000000;display:inline" />
      <path
         sodipodi:nodetypes="ccccccccccc"
         inkscape:connector-curvature="0"
         id="path2996-0-1-8-8-5-7-9-8-7"
         d="m 456.00679,334.32935 c -0.7061,1.99522 -1.897,3.64213 -3.1396,5.17121 -0.89892,0.68611 -3.47878,-4.059 -5.07076,-5.14547 -1.16336,0.26552 -1.64358,0.30768 -1.95194,0.20366 -0.7069,-0.23859 -0.98963,-0.91653 -0.69779,-1.62422 0.12079,-0.16973 -0.024,-0.1878 1.20317,-0.60449 1.27312,-0.39484 1.356,-0.35705 1.87047,-0.3512 1.28681,0.82397 2.96153,3.26233 3.98261,4.46413 l 1.55182,-2.52334 1.44173,-2.33174 c 0.0224,0.13319 0.18574,0.14722 0.81029,2.74146 z"
         style="fill:#000000;display:inline" />
      <path
         sodipodi:nodetypes="csccccccccccccccccccssc"
         inkscape:connector-curvature="0"
         id="path2996-0-1-8-8-5-7-4"
         d="m 455.94903,323.9217 c -2.10079,0.21263 -3.29053,2.27261 -2.1875,4.3125 0.3217,0.59495 0.86192,1.03802 1.46875,1.28125 l -0.0312,1.84375 c 0.022,-0.82157 -0.0569,4.05127 -0.0625,3.43736 l -0.125,5.4375 c -0.008,0.002 -0.60032,1.88186 -0.71875,2.25 l -1.9375,6 c -0.3352,0.9942 -4.88242,12.10621 -1.25,10.21875 0.5854,-0.31096 0.74249,-0.78164 2.78125,-6.9375 l 2.25,-7.59375 2.21875,7.59375 c 2.03876,6.15586 2.2271,6.59529 2.8125,6.90625 3.63242,1.88746 -0.9148,-9.22455 -1.25,-10.21875 l -1.9375,-6 c -0.11329,-0.35215 -0.62691,-1.9725 -0.65625,-2.0625 0.004,-0.0623 0,-5.46875 0,-5.46875 -0.0115,1.17055 0.0107,-4.19587 0,-3.40625 l 0,-1.96875 c 1.23791,-0.45052 1.99512,-1.86837 1.78125,-3.375 -0.12722,-0.89496 -1.316,-2.08154 -2.21875,-2.21875 -0.33351,-0.0507 -0.63739,-0.0616 -0.9375,-0.0312 z"
         style="fill:#000000;display:inline" />
      <text
         xml:space="preserve"
         style="font-size:12.16986561px;font-style:normal;font-variant:normal;font-weight:bold;font-stretch:normal;text-align:start;line-height:125%;letter-spacing:0px;word-spacing:0px;writing-mode:lr-tb;text-anchor:start;fill:#000000;fill-opacity:1;stroke:none;font-family:Sans;-inkscape-font-specification:Sans Bold"
         x="452.38104"
         y="322.68719"
         id="text3308-4-5-2-7"
         sodipodi:linespacing="125%"><tspan
           sodipodi:role="line"
           id="tspan3310-0-1-3-6"
           x="452.38104"
           y="322.68719">?</tspan></text>
    </g>
  </g>
</svg>
