<?xml version="1.0" encoding="UTF-8" standalone="no"?>
<!-- Created with Inkscape (http://www.inkscape.org/) -->

<svg
   xmlns:dc="http://purl.org/dc/elements/1.1/"
   xmlns:cc="http://creativecommons.org/ns#"
   xmlns:rdf="http://www.w3.org/1999/02/22-rdf-syntax-ns#"
   xmlns:svg="http://www.w3.org/2000/svg"
   xmlns="http://www.w3.org/2000/svg"
   xmlns:sodipodi="http://sodipodi.sourceforge.net/DTD/sodipodi-0.dtd"
   xmlns:inkscape="http://www.inkscape.org/namespaces/inkscape"
   width="219.51051"
   height="38.171459"
   id="svg3202"
   version="1.1"
   inkscape:version="0.48.5 r10040"
   sodipodi:docname="main_logo.svg">
  <defs
     id="defs3204" />
  <sodipodi:namedview
     id="base"
     pagecolor="#ffffff"
     bordercolor="#666666"
     borderopacity="1.0"
     inkscape:pageopacity="0.0"
     inkscape:pageshadow="2"
     inkscape:zoom="2.8"
     inkscape:cx="160.49328"
     inkscape:cy="-16.735313"
     inkscape:document-units="px"
     inkscape:current-layer="layer1"
     showgrid="false"
     inkscape:window-width="1280"
     inkscape:window-height="737"
     inkscape:window-x="-4"
     inkscape:window-y="-4"
     inkscape:window-maximized="1"
     fit-margin-top="0"
     fit-margin-left="0"
     fit-margin-right="0"
     fit-margin-bottom="0" />
  <metadata
     id="metadata3207">
    <rdf:RDF>
      <cc:Work
         rdf:about="">
        <dc:format>image/svg+xml</dc:format>
        <dc:type
           rdf:resource="http://purl.org/dc/dcmitype/StillImage" />
        <dc:title />
      </cc:Work>
    </rdf:RDF>
  </metadata>
  <g
     inkscape:label="Capa 1"
     inkscape:groupmode="layer"
     id="layer1"
     transform="translate(-1.9999997,-2.0204232)">
    <g
       transform="matrix(0.22107065,0,0,0.22107065,34.725604,-21.905118)"
       id="g3029"
       style="fill:#ffffff;display:inline">
      <path
         sodipodi:nodetypes="cscccccccscsssccsccscccccsssccscssssssssccssccc"
         inkscape:connector-curvature="0"
         id="path2996-0"
         d="m 645.09691,239.71858 c 0.0396,-2.99806 1.42446,-4.60745 21.97556,-25.53787 l 72.31843,-69.99051 2.31589,2.63693 3.81205,4.65619 -61.9562,62.14484 c -3.30697,3.40412 -38.54911,44.60721 -38.46573,26.09051 z m 42.3243,-12.83285 c -3.19856,-2.92712 -1.61243,-7.94027 1.47289,-9.34074 0.79869,-0.30649 8.70776,-0.97974 17.57571,-1.49611 8.86795,-0.51638 16.48763,-1.28121 16.93259,-1.69962 0.48429,-0.45539 -3.95781,-5.37391 -11.06699,-12.25395 -8.06592,-7.80593 -11.86928,-12.08779 -11.85504,-13.34653 0.0343,-3.02934 2.87569,-5.79946 5.94871,-5.79946 2.31443,0 4.35588,1.56974 13.34691,10.26289 20.42108,19.92923 33.12434,31.16915 8.00313,33.17249 -7.14061,0.56369 -18.83083,1.27366 -25.97825,1.5777 -12.03959,0.51214 -13.09711,0.43296 -14.37966,-1.07667 z m 43.01186,-32.69693 c -2.11674,-1.69291 -2.2084,-2.52655 -2.2084,-13.86553 l 0,-11.65712 5.41472,-5.81588 5.41471,-5.81588 0.43317,13.31844 0.43318,13.31845 15.02065,0 c 14.84813,0 15.04018,0.0241 16.72046,2.09855 2.17943,2.6907 1.77076,5.9765 -0.98554,7.92384 -1.82597,1.29006 -4.98058,1.62229 -20.10022,2.11688 -7.10203,-0.0681 -17.46882,0.78578 -20.14273,-1.62175 z m -3.58953,-35.11111 c -0.99938,-0.7 -7.60208,-9.93237 -12.49333,-15.66505 -4.89125,-5.7327 -9.04617,-10.42308 -9.23316,-10.42308 -0.18698,0 -4.44803,3.6062 -9.46899,8.01378 -11.23328,9.86096 -13.5785,11.39148 -16.37841,10.68875 -2.8654,-0.71918 -4.9829,-4.08003 -4.2957,-6.81804 0.50389,-2.00767 21.62637,-21.41745 27.48409,-25.25558 4.48731,-2.94019 0.7624,-7.95242 22.22168,16.8828 5.71516,6.61426 18.41906,26.2369 10.27999,14.76971 -1.99604,-2.81224 -5.70147,9.49801 -8.11617,7.80671 z m 18.46272,-7.47757 c -5.97048,-2.76204 -8.99236,-9.47581 -7.20191,-15.55013 3.38954,-11.49931 16.46876,-13.5742 23.73564,-3.76541 2.45879,3.31886 2.47278,10.92011 0.0262,14.19714 -4.11811,5.51575 -11.15162,7.62423 -16.55985,5.1223 z"
         style="fill:#ffffff" />
      <g
         style="font-size:176.19364929px;font-style:normal;font-variant:normal;font-weight:bold;font-stretch:normal;text-align:start;line-height:125%;letter-spacing:0px;word-spacing:100px;writing-mode:lr-tb;text-anchor:start;fill:#ffffff;fill-opacity:1;stroke:none;display:inline;font-family:Aller;-inkscape-font-specification:Aller Bold"
         id="text4023-6">
        <path
           d="m -60.817338,218.51886 c 2.584447,5.05082 4.229809,9.92596 4.936089,14.62545 -4.936185,2.11496 -9.987875,3.64203 -15.155084,4.58121 -5.167381,0.93918 -10.746017,1.40877 -16.735923,1.40878 -9.162474,-1e-5 -17.414374,-1.4975 -24.755724,-4.49249 -7.34144,-2.99499 -13.53753,-7.28225 -18.5883,-12.86179 -5.05082,-5.57952 -8.92764,-12.3626 -11.63046,-20.34927 -2.70285,-7.9866 -4.05427,-16.97336 -4.05426,-26.9603 -1e-5,-10.10152 1.35141,-19.23346 4.05426,-27.39583 2.70282,-8.16219 6.57964,-15.12182 11.63046,-20.8789 5.05077,-5.75687 11.21729,-10.1911 18.49958,-13.30271 7.2822,-3.11137 15.445382,-4.66711 24.489561,-4.66724 6.696086,1.3e-4 12.452163,0.46972 17.268247,1.40877 4.815912,0.93931 9.102275,2.05415 12.859104,3.3445 -0.233103,2.70296 -0.731371,5.19968 -1.494807,7.49017 -0.763632,2.29071 -1.674137,4.72829 -2.731518,7.31272 -1.76375,-0.58777 -3.467362,-1.11651 -5.110842,-1.58621 -1.643659,-0.46949 -3.405522,-0.88083 -5.285594,-1.23403 -1.880242,-0.35297 -3.965621,-0.61734 -6.256144,-0.79311 -2.290679,-0.17553 -4.9039,-0.26336 -7.839671,-0.26347 -12.804495,1.1e-4 -22.759106,4.34652 -29.863876,13.03924 -7.10485,8.69291 -10.65725,21.2016 -10.65722,37.5261 -3e-5,8.34158 0.9983,15.56647 2.99499,21.6747 1.99662,6.10831 4.81507,11.15911 8.45534,15.1524 3.64018,3.99334 8.01527,6.98833 13.12526,8.98497 5.109889,1.99668 10.837288,2.99501 17.182217,2.99499 4.932428,2e-5 9.395336,-0.41132 13.388739,-1.23402 3.993232,-0.82267 7.751754,-1.99754 11.275576,-3.52463 z"
           style=""
           id="path2989" />
        <path
           d="m -32.770891,110.33893 c 3.993301,-0.46946 8.809299,-0.91038 14.448008,-1.32274 5.638648,-0.41211 11.1608255,-0.61823 16.5665476,-0.61836 22.1997864,1.3e-4 38.7905134,5.63881 49.7722324,16.91606 10.981526,11.27747 16.472337,27.48732 16.47245,48.62962 -1.13e-4,22.0816 -5.608322,38.4671 -16.824644,49.15656 -11.216514,10.68949 -27.926431,16.03422 -50.1298029,16.03423 -5.5204307,-1e-5 -10.9816681,-0.20523 -16.3837291,-0.61567 -5.402121,-0.41045 -10.04247,-0.90961 -13.921062,-1.4975 z m 17.975322,111.87931 c 1.641743,0.23661 3.667079,0.44272 6.0760141,0.61836 2.4088554,0.17566 4.9647218,0.26349 7.6676069,0.26347 6.9291108,2e-5 13.241707,-0.7922 18.937806,-2.37663 5.695967,-1.58441 10.599789,-4.25678 14.711482,-8.01712 4.11153,-3.76029 7.283063,-8.84065 9.514607,-15.24111 2.231364,-6.40038 3.347091,-14.41659 3.347185,-24.04865 -9.4e-5,-8.81104 -1.115821,-16.32898 -3.347185,-22.55384 -2.231544,-6.22469 -5.373504,-11.30505 -9.425887,-15.24112 -4.052545,-3.93586 -8.898117,-6.78477 -14.536729,-8.54674 -5.638745,-1.76176 -11.8635163,-2.64269 -18.67433264,-2.6428 -2.23329446,1.1e-4 -4.67086696,0.0297 -7.31272466,0.0887 -2.6419387,0.0593 -4.9612177,0.26448 -6.9578427,0.61567 z"
           style=""
           id="path2991" />
        <path
           d="m 113.51048,172.71217 40.69854,-62.37324 c 1.64528,-0.23646 3.26107,-0.413 4.84737,-0.52963 1.58613,-0.11638 3.02448,-0.17463 4.31505,-0.17476 1.52698,1.3e-4 3.17144,0.0584 4.9334,0.17476 1.76177,0.11663 3.58367,0.29317 5.46572,0.52963 l -40.17159,60.78703 45.27974,65.89517 c -1.87846,0.23659 -3.72815,0.41314 -5.54906,0.52964 -1.82111,0.1165 -3.5543,0.17475 -5.19957,0.17475 -1.40886,0 -2.93593,-0.0582 -4.5812,-0.17475 -1.64545,-0.1165 -3.34817,-0.29305 -5.10816,-0.52964 z M 90.254943,110.33893 c 1.408758,-0.23646 2.876679,-0.413 4.403766,-0.52963 1.527048,-0.11638 3.054115,-0.17463 4.581207,-0.17476 1.527044,1.3e-4 3.054114,0.0584 4.581204,0.17476 1.52704,0.11663 2.99496,0.29317 4.40377,0.52963 l 0,126.6822 c -1.40881,0.23659 -2.87673,0.41314 -4.40377,0.52964 -1.52709,0.1165 -3.05416,0.17475 -4.581204,0.17475 -1.645386,0 -3.2316,-0.0582 -4.758648,-0.17475 -1.527087,-0.1165 -2.935861,-0.29305 -4.226325,-0.52964 z"
           style=""
           id="path2993" />
        <path
           d="m 207.87151,196.14515 c 0.23656,9.86504 2.79243,17.08814 7.66761,21.66933 4.87511,4.58122 12.06953,6.87182 21.58329,6.87181 8.33787,10e-6 16.26536,-1.46791 23.78249,-4.40377 0.94268,1.76367 1.70711,3.9082 2.29329,6.43359 0.58601,2.5254 0.9382,5.02123 1.05658,7.48747 -3.87511,1.64178 -8.13279,2.87401 -12.77307,3.69669 -4.64042,0.82268 -9.77994,1.23402 -15.41856,1.23403 -8.22328,-1e-5 -15.27073,-1.14531 -21.14238,-3.43591 -5.87171,-2.2906 -10.71639,-5.52038 -14.53404,-9.68936 -3.81769,-4.16895 -6.60745,-9.10235 -8.3693,-14.8002 -1.76188,-5.6978 -2.64281,-11.95215 -2.6428,-18.76306 -1e-5,-6.69611 0.85135,-12.95135 2.55408,-18.76574 1.7027,-5.81426 4.31592,-10.86505 7.83967,-15.15239 3.5237,-4.28718 7.95793,-7.69351 13.3027,-10.219 5.34471,-2.52531 11.6573,-3.788 18.93781,-3.7881 6.22651,10e-5 11.68954,1.05668 16.38911,3.16975 4.69942,2.11325 8.63449,5.02041 11.80521,8.7215 3.17055,3.70124 5.57855,8.1068 7.224,13.21667 1.64528,5.11001 2.46796,10.65997 2.46805,16.64989 -9e-5,1.64541 -0.0592,3.3777 -0.17745,5.19688 -0.11838,1.81926 -0.23667,3.3759 -0.35488,4.66992 z m 44.7528,-13.03923 c -7e-5,-3.29067 -0.44009,-6.43352 -1.32005,-9.42858 -0.88011,-2.99492 -2.17149,-5.60814 -3.87414,-7.83967 -1.70278,-2.23138 -3.87598,-4.02282 -6.51961,-5.37431 -2.64375,-1.35134 -5.78661,-2.02705 -9.42858,-2.02713 -7.16579,8e-5 -12.6575,2.17328 -16.47514,6.51961 -3.8177,4.34648 -6.13698,10.3965 -6.95784,18.15008 z"
           style=""
           id="path2995" />
        <path
           d="m 323.74596,237.19857 c -0.93923,0 -1.90798,0.0296 -2.90627,0.0887 -0.99837,0.0591 -1.96892,0.0887 -2.91165,0.0887 -1.17222,0 -2.40445,-0.0296 -3.69669,-0.0887 -1.2923,-0.0591 -2.34888,-0.14787 -3.16974,-0.26617 l -29.95529,-90.38742 c 1.52707,-0.2365 3.11239,-0.38347 4.75596,-0.44092 1.64356,-0.0573 3.17153,-0.0859 4.5839,-0.086 1.52705,9e-5 3.22977,0.0288 5.10815,0.086 1.87835,0.0574 3.46456,0.20442 4.75865,0.44092 l 25.0192,84.04256 25.90102,-84.04256 c 2.46618,-0.35121 5.34287,-0.52686 8.63009,-0.52695 1.29399,9e-5 2.7628,0.0288 4.40646,0.086 1.64348,0.0574 3.28795,0.20442 4.9334,0.44092 l -35.06344,108.71225 c -1.64542,4.81419 -3.34903,8.86576 -5.11084,12.15472 -1.76192,3.2889 -3.75858,5.93169 -5.98999,7.92839 -2.23149,1.99662 -4.72732,3.40629 -7.48747,4.22901 -2.76023,0.82264 -5.96134,1.23398 -9.60333,1.23402 -2.69928,-4e-5 -5.37075,-0.20526 -8.01442,-0.61566 -2.64371,-0.41049 -4.96389,-0.90965 -6.96054,-1.4975 -10e-6,-2.70288 0.23479,-5.11088 0.70439,-7.224 0.46958,-2.1132 1.17397,-4.22725 2.11316,-6.34218 1.05747,0.35127 2.49671,0.73304 4.31774,1.1453 1.82099,0.41221 3.78897,0.61833 5.90395,0.61836 1.52704,-3e-5 2.96539,-0.147 4.31504,-0.44091 1.3496,-0.29398 2.6123,-0.88186 3.7881,-1.76366 1.17574,-0.88186 2.26279,-2.14456 3.26115,-3.7881 0.9983,-1.64359 1.96705,-3.87594 2.90627,-6.69706 z"
           style=""
           id="path2997" />
        <path
           d="m 384.58677,220.6374 c 3.16883,1.2905 6.66208,2.31751 10.47977,3.08103 3.81765,0.76354 7.60664,1.14531 11.36699,1.1453 2.69922,1e-5 5.28287,-0.29393 7.75095,-0.88183 2.468,-0.58787 4.61163,-1.4688 6.4309,-2.6428 1.81917,-1.17396 3.28709,-2.61231 4.40376,-4.31504 1.11657,-1.7027 1.67488,-3.61153 1.67494,-5.72651 -6e-5,-2.34793 -0.44007,-4.28544 -1.32006,-5.81254 -0.88008,-1.52704 -2.05496,-2.81931 -3.52462,-3.87682 -1.46976,-1.05744 -3.17338,-1.96795 -5.11084,-2.73152 -1.93756,-0.76349 -4.02294,-1.49835 -6.25615,-2.20457 l -6.16204,-2.2906 c -7.52066,-2.81751 -12.98369,-5.98814 -16.38911,-9.51192 -3.40545,-3.52368 -5.10816,-8.28232 -5.10815,-14.27595 -10e-6,-7.98657 2.848,-14.32873 8.54406,-19.02652 5.69601,-4.69762 14.0662,-7.04647 25.1106,-7.04657 4.57758,10e-5 9.06916,0.44011 13.47477,1.32006 4.4055,0.88012 8.25364,1.90803 11.54443,3.08371 -0.23666,2.34804 -0.67757,4.69689 -1.32274,7.04656 -0.64531,2.34983 -1.43931,4.52303 -2.38202,6.51962 -2.58102,-0.93911 -5.66294,-1.84961 -9.24575,-2.73152 -3.58293,-0.88175 -7.43017,-1.32266 -11.54174,-1.32274 -4.34825,8e-5 -8.19549,0.76361 -11.54174,2.2906 -3.34632,1.52715 -5.01946,4.22998 -5.01943,8.10852 -3e-5,1.99673 0.41041,3.69945 1.23133,5.10816 0.82086,1.40883 1.93659,2.61238 3.34719,3.61065 1.41053,0.99839 3.02632,1.85065 4.84737,2.55677 1.82097,0.70623 3.78716,1.41062 5.89857,2.11316 l 7.75364,2.64549 c 2.82108,0.93923 5.49434,2.05496 8.0198,3.34718 2.52534,1.29232 4.69854,2.90721 6.51961,4.84468 1.82095,1.93756 3.28887,4.28641 4.40377,7.04656 1.11476,2.76023 1.67218,6.07784 1.67225,9.95284 -7e-5,4.34822 -0.88101,8.31376 -2.6428,11.89662 -1.76193,3.58289 -4.25775,6.63702 -7.48748,9.16241 -3.22984,2.5254 -7.13533,4.49249 -11.71649,5.90126 -4.58125,1.40878 -9.63204,2.11316 -15.15239,2.11317 -5.63872,-1e-5 -10.57211,-0.38177 -14.8002,-1.14531 -4.22814,-0.76353 -8.1632,-1.79054 -11.80522,-3.08102 0.233,-2.35154 0.73127,-4.73086 1.49481,-7.13797 0.76353,-2.40709 1.61668,-4.78462 2.55946,-7.1326 z"
           style=""
           id="path2999" />
        <path
           d="m 467.76364,110.33893 66.24468,0 c 0.23651,1.17231 0.41305,2.43412 0.52964,3.78541 0.11642,1.35154 0.17467,2.67429 0.17475,3.96823 -8e-5,1.2906 -0.0583,2.64023 -0.17475,4.04888 -0.11659,1.40889 -0.29313,2.70116 -0.52964,3.87682 l -48.27473,0 0,37.17661 40.34903,0 c 0.23293,1.29413 0.40858,2.61598 0.52695,3.96554 0.11822,1.34969 0.17736,2.67154 0.17744,3.96554 -8e-5,1.29054 -0.0592,2.61149 -0.17744,3.96285 -0.11837,1.35148 -0.29402,2.67243 -0.52695,3.96285 l -40.34903,0 0,57.96947 c -1.40881,0.23659 -2.84716,0.41314 -4.31505,0.52964 -1.46795,0.1165 -3.02459,0.17475 -4.66993,0.17475 -1.52709,0 -3.08373,-0.0582 -4.66992,-0.17475 -1.58624,-0.1165 -3.02459,-0.29305 -4.31505,-0.52964 z"
           style=""
           id="path3001" />
        <path
           d="m 602.88769,194.55894 c -1.76372,-0.23655 -3.99607,-0.47224 -6.69706,-0.70708 -2.7011,-0.23475 -4.99259,-0.35215 -6.8745,-0.35219 -7.2805,4e-5 -12.82956,1.35146 -16.6472,4.05426 -3.8177,2.70288 -5.72653,6.81449 -5.72651,12.33484 -2e-5,3.52376 0.64611,6.28395 1.93841,8.28059 1.29225,1.99668 2.90714,3.52374 4.84468,4.58121 1.93748,1.05749 4.08111,1.70362 6.4309,1.93841 2.34971,0.2348 4.58206,0.3522 6.69706,0.35219 2.6992,1e-5 5.48807,-0.14696 8.36661,-0.44091 2.87844,-0.29393 5.4343,-0.73485 7.66761,-1.32275 z m 0,-17.0935 c -6e-5,-6.9291 -1.76282,-11.7442 -5.28828,-14.44532 -3.52558,-2.70097 -8.63462,-4.05149 -15.32715,-4.05157 -4.11165,8e-5 -7.95889,0.3227 -11.54174,0.96786 -3.5829,0.64532 -7.07705,1.49668 -10.48247,2.55408 -2.23326,-3.87495 -3.34989,-8.5153 -3.34987,-13.92106 3.9933,-1.29039 8.39796,-2.28783 13.21399,-2.99231 4.81597,-0.70429 9.45542,-1.05648 13.91837,-1.05658 11.74691,10e-5 20.67451,2.67246 26.78285,8.01712 6.1082,5.34482 9.16234,13.88887 9.16242,25.63217 l 0,56.5607 c -4.11169,0.93918 -9.10424,1.90794 -14.97765,2.90627 -5.87353,0.99833 -11.86441,1.49749 -17.97263,1.4975 -5.75343,-1e-5 -10.9503,-0.52874 -15.59062,-1.58622 -4.64038,-1.05748 -8.57545,-2.76019 -11.80521,-5.10815 -3.2298,-2.34795 -5.72563,-5.34294 -7.48748,-8.98498 -1.76187,-3.642 -2.6428,-8.04756 -2.6428,-13.21667 0,-5.05077 1.0279,-9.485 3.08372,-13.30271 2.05579,-3.81763 4.84555,-6.98916 8.3693,-9.5146 3.52371,-2.52535 7.57617,-4.40461 12.15741,-5.63779 4.58117,-1.23307 9.39716,-1.84964 14.448,-1.84969 3.75669,5e-5 6.8395,0.0879 9.24845,0.26347 2.40884,0.17571 4.43597,0.38182 6.08139,0.61836 z"
           style=""
           id="path3003" />
        <path
           d="m 791.31789,160.55477 -13.74362,0 -0.70439,-2.46805 30.3048,-33.8321 1.40877,0 0,22.37909 22.90604,0 c 0.46953,1.99674 0.70432,4.2282 0.70438,6.69436 -6e-5,1.29415 -0.0583,2.52817 -0.17475,3.70207 -0.11656,1.17406 -0.2931,2.34893 -0.52963,3.52463 l -22.90604,0 0,41.22548 c -3e-5,4.93612 0.20608,8.87208 0.61836,11.8079 0.4122,2.93587 1.11748,5.19689 2.11585,6.78309 0.99829,1.58623 2.34881,2.64371 4.05157,3.17243 1.70267,0.52876 3.8463,0.79312 6.4309,0.79311 1.99661,1e-5 3.87587,-0.14696 5.63778,-0.44091 1.76181,-0.29393 3.34713,-0.61655 4.75596,-0.96786 0.82442,2.34797 1.32448,4.75507 1.50019,7.22131 0.17559,2.46626 0.26341,4.63857 0.26347,6.51693 -2.34802,0.58789 -4.81427,1.0288 -7.39876,1.32274 -2.58459,0.29395 -5.34479,0.44092 -8.28058,0.44092 -8.45986,0 -15.06819,-2.05581 -19.82501,-6.16742 -4.75688,-4.11161 -7.13531,-10.92427 -7.13529,-20.43799 z"
           style=""
           id="path3005" />
      </g>
    </g>
  </g>
</svg>
