<?xml version="1.0" encoding="UTF-8" standalone="no"?>
<!-- Created with Inkscape (http://www.inkscape.org/) -->

<svg
   xmlns:dc="http://purl.org/dc/elements/1.1/"
   xmlns:cc="http://creativecommons.org/ns#"
   xmlns:rdf="http://www.w3.org/1999/02/22-rdf-syntax-ns#"
   xmlns:svg="http://www.w3.org/2000/svg"
   xmlns="http://www.w3.org/2000/svg"
   xmlns:sodipodi="http://sodipodi.sourceforge.net/DTD/sodipodi-0.dtd"
   xmlns:inkscape="http://www.inkscape.org/namespaces/inkscape"
   width="240"
   height="41.734447"
   id="svg3202"
   version="1.1"
   inkscape:version="0.48.5 r10040"
   sodipodi:docname="main_logo.svg">
  <defs
     id="defs3204" />
  <sodipodi:namedview
     id="base"
     pagecolor="#ffffff"
     bordercolor="#666666"
     borderopacity="1.0"
     inkscape:pageopacity="0.0"
     inkscape:pageshadow="2"
     inkscape:zoom="2.8"
     inkscape:cx="57.173376"
     inkscape:cy="26.121828"
     inkscape:document-units="px"
     inkscape:current-layer="layer1"
     showgrid="false"
     inkscape:window-width="1280"
     inkscape:window-height="737"
     inkscape:window-x="-4"
     inkscape:window-y="-4"
     inkscape:window-maximized="1"
     fit-margin-top="0"
     fit-margin-left="0"
     fit-margin-right="0"
     fit-margin-bottom="0" />
  <metadata
     id="metadata3207">
    <rdf:RDF>
      <cc:Work
         rdf:about="">
        <dc:format>image/svg+xml</dc:format>
        <dc:type
           rdf:resource="http://purl.org/dc/dcmitype/StillImage" />
        <dc:title />
      </cc:Work>
    </rdf:RDF>
  </metadata>
  <g
     inkscape:label="Capa 1"
     inkscape:groupmode="layer"
     id="layer1"
     transform="translate(-2.0000007,1.5425652)">
    <g
       transform="matrix(0.24170575,0,0,0.24170575,37.780267,-27.701356)"
       id="g3029"
       style="fill:#ffffff;display:inline">
      <path
         sodipodi:nodetypes="cscccccccscsssccsccscccccsssccscssssssssccssccc"
         inkscape:connector-curvature="0"
         id="path2996-0"
         d="m 645.09691,239.71858 c 0.0396,-2.99806 1.42446,-4.60745 21.97556,-25.53787 l 72.31843,-69.99051 2.31589,2.63693 3.81205,4.65619 -61.9562,62.14484 c -3.30697,3.40412 -38.54911,44.60721 -38.46573,26.09051 z m 42.3243,-12.83285 c -3.19856,-2.92712 -1.61243,-7.94027 1.47289,-9.34074 0.79869,-0.30649 8.70776,-0.97974 17.57571,-1.49611 8.86795,-0.51638 16.48763,-1.28121 16.93259,-1.69962 0.48429,-0.45539 -3.95781,-5.37391 -11.06699,-12.25395 -8.06592,-7.80593 -11.86928,-12.08779 -11.85504,-13.34653 0.0343,-3.02934 2.87569,-5.79946 5.94871,-5.79946 2.31443,0 4.35588,1.56974 13.34691,10.26289 20.42108,19.92923 33.12434,31.16915 8.00313,33.17249 -7.14061,0.56369 -18.83083,1.27366 -25.97825,1.5777 -12.03959,0.51214 -13.09711,0.43296 -14.37966,-1.07667 z m 43.01186,-32.69693 c -2.11674,-1.69291 -2.2084,-2.52655 -2.2084,-13.86553 l 0,-11.65712 5.41472,-5.81588 5.41471,-5.81588 0.43317,13.31844 0.43318,13.31845 15.02065,0 c 14.84813,0 15.04018,0.0241 16.72046,2.09855 2.17943,2.6907 1.77076,5.9765 -0.98554,7.92384 -1.82597,1.29006 -4.98058,1.62229 -20.10022,2.11688 -7.10203,-0.0681 -17.46882,0.78578 -20.14273,-1.62175 z m -3.58953,-35.11111 c -0.99938,-0.7 -7.60208,-9.93237 -12.49333,-15.66505 -4.89125,-5.7327 -9.04617,-10.42308 -9.23316,-10.42308 -0.18698,0 -4.44803,3.6062 -9.46899,8.01378 -11.23328,9.86096 -13.5785,11.39148 -16.37841,10.68875 -2.8654,-0.71918 -4.9829,-4.08003 -4.2957,-6.81804 0.50389,-2.00767 21.62637,-21.41745 27.48409,-25.25558 4.48731,-2.94019 0.7624,-7.95242 22.22168,16.8828 5.71516,6.61426 18.41906,26.2369 10.27999,14.76971 -1.99604,-2.81224 -5.70147,9.49801 -8.11617,7.80671 z m 18.46272,-7.47757 c -5.97048,-2.76204 -8.99236,-9.47581 -7.20191,-15.55013 3.38954,-11.49931 16.46876,-13.5742 23.73564,-3.76541 2.45879,3.31886 2.47278,10.92011 0.0262,14.19714 -4.11811,5.51575 -11.15162,7.62423 -16.55985,5.1223 z"
         style="fill:#ffffff" />
      <text
         xml:space="preserve"
         style="font-size:176.19364929px;font-style:normal;font-variant:normal;font-weight:bold;font-stretch:normal;text-align:start;line-height:125%;letter-spacing:0px;word-spacing:100px;writing-mode:lr-tb;text-anchor:start;fill:#ffffff;fill-opacity:1;stroke:none;display:inline;font-family:Aller;-inkscape-font-specification:Aller Bold"
         x="-157.19475"
         y="237.02113"
         id="text4023-6"
         sodipodi:linespacing="125%"><tspan
           sodipodi:role="line"
           id="tspan4025-1"
           x="-157.19475"
           y="237.02113">CDKeysFa t</tspan></text>
    </g>
  </g>
</svg>
