<?xml version="1.0" encoding="UTF-8" standalone="no"?>
<!-- Created with Inkscape (http://www.inkscape.org/) -->

<svg
   xmlns:dc="http://purl.org/dc/elements/1.1/"
   xmlns:cc="http://creativecommons.org/ns#"
   xmlns:rdf="http://www.w3.org/1999/02/22-rdf-syntax-ns#"
   xmlns:svg="http://www.w3.org/2000/svg"
   xmlns="http://www.w3.org/2000/svg"
   xmlns:sodipodi="http://sodipodi.sourceforge.net/DTD/sodipodi-0.dtd"
   xmlns:inkscape="http://www.inkscape.org/namespaces/inkscape"
   width="35.99995"
   height="36.000057"
   id="svg3438"
   version="1.1"
   inkscape:version="0.48.5 r10040"
   sodipodi:docname="android.svg">
  <defs
     id="defs3440" />
  <sodipodi:namedview
     id="base"
     pagecolor="#ffffff"
     bordercolor="#666666"
     borderopacity="1.0"
     inkscape:pageopacity="0.0"
     inkscape:pageshadow="2"
     inkscape:zoom="5.6"
     inkscape:cx="17.874131"
     inkscape:cy="19.973336"
     inkscape:document-units="px"
     inkscape:current-layer="layer1"
     showgrid="false"
     fit-margin-top="0"
     fit-margin-left="0"
     fit-margin-right="0"
     fit-margin-bottom="0"
     inkscape:window-width="1030"
     inkscape:window-height="482"
     inkscape:window-x="0"
     inkscape:window-y="5"
     inkscape:window-maximized="0" />
  <metadata
     id="metadata3443">
    <rdf:RDF>
      <cc:Work
         rdf:about="">
        <dc:format>image/svg+xml</dc:format>
        <dc:type
           rdf:resource="http://purl.org/dc/dcmitype/StillImage" />
        <dc:title />
      </cc:Work>
    </rdf:RDF>
  </metadata>
  <g
     inkscape:label="Capa 1"
     inkscape:groupmode="layer"
     id="layer1"
     transform="translate(-335.02792,-514.04923)">
    <path
       inkscape:connector-curvature="0"
       style="fill:#ffffff;stroke:none;display:inline"
       d="m 360.32518,514.04942 c -0.16912,-0.004 -0.34256,0.0545 -0.4387,0.16914 -0.12482,0.14882 -1.42219,2.10765 -1.66579,2.51498 -0.0581,0.0971 -0.11424,0.18453 -0.1238,0.19488 -0.009,0.0104 -0.45472,-0.10035 -0.99034,-0.24636 -0.53562,-0.14599 -1.20995,-0.30619 -1.49854,-0.35665 -0.82653,-0.14452 -2.22284,-0.22719 -3.18388,-0.18752 -1.52938,0.0631 -2.18675,0.1697 -3.70077,0.59933 -0.37955,0.10771 -0.71388,0.1824 -0.74276,0.1673 -0.0587,-0.0307 -0.2159,-0.26732 -1.1706,-1.75939 -0.16563,-0.25885 -0.40684,-0.60962 -0.53428,-0.77949 -0.21093,-0.2812 -0.2534,-0.30886 -0.48649,-0.30886 -0.1408,0 -0.3145,0.0439 -0.38439,0.0974 -0.26566,0.20351 -0.2099,0.31878 1.1163,2.3385 0.2747,0.41833 0.48565,0.79521 0.46695,0.83648 -0.0188,0.0413 -0.16564,0.13124 -0.32579,0.2004 -0.16013,0.0691 -0.3268,0.15088 -0.3692,0.18016 -0.0424,0.0293 -0.24801,0.15605 -0.45824,0.28312 -0.99686,0.60249 -1.34948,0.87169 -2.09146,1.59393 -0.60689,0.59073 -0.94625,0.97927 -1.20753,1.3825 -0.10478,0.16179 -0.21479,0.32063 -0.24325,0.35298 -0.0981,0.11155 -0.55254,1.06063 -0.69063,1.44133 -0.30865,0.85092 -0.56005,2.36172 -0.41699,2.50763 0.0672,0.0686 1.92149,0.0809 11.84941,0.0809 11.13739,0 11.77261,-0.005 11.83419,-0.10295 0.13668,-0.21625 -0.12648,-1.69994 -0.46042,-2.60323 -0.31408,-0.84956 -1.10264,-2.04726 -1.91771,-2.91209 -0.46468,-0.49304 -1.70344,-1.42235 -2.43243,-1.82372 -0.41136,-0.2265 -0.81394,-0.45348 -0.89262,-0.50374 l -0.14334,-0.0919 0.1933,-0.31989 c 0.10526,-0.17623 0.48635,-0.76515 0.847,-1.30897 0.70776,-1.06718 0.80985,-1.32433 0.6081,-1.51303 -0.0853,-0.0799 -0.21377,-0.12019 -0.3453,-0.12318 z m -12.60954,6.10361 c 0.4952,0 0.89696,0.34009 0.89696,0.75928 0,0.41919 -0.40176,0.75928 -0.89696,0.75928 -0.49521,0 -0.89695,-0.34009 -0.89695,-0.75928 0,-0.41919 0.40174,-0.75928 0.89695,-0.75928 z m 10.61365,0 c 0.49519,0 0.89695,0.34009 0.89695,0.75928 0,0.41919 -0.40176,0.75928 -0.89695,0.75928 -0.49522,0 -0.89697,-0.34009 -0.89697,-0.75928 0,-0.41919 0.40175,-0.75928 0.89697,-0.75928 z m 9.9382,5.44362 c -1.14762,0.0199 -2.0898,0.58031 -2.52365,1.52038 l -0.1781,0.3824 0.0217,5.11821 0.0196,5.11821 0.19329,0.34746 c 0.1062,0.19189 0.30051,0.46147 0.43219,0.5975 0.29086,0.30046 0.89977,0.65163 1.26182,0.72802 0.14651,0.0309 0.56423,0.0505 0.92737,0.0422 0.54934,-0.0124 0.7304,-0.0425 1.08374,-0.17833 0.52952,-0.20341 0.99048,-0.59382 1.29223,-1.09571 l 0.23019,-0.38239 0,-5.20645 0,-5.20646 -0.16722,-0.35114 c -0.34805,-0.73166 -1.3176,-1.35113 -2.23044,-1.42295 -0.12278,-0.009 -0.24398,-0.0131 -0.3627,-0.011 z m -30.74851,0.0203 c -0.45828,0.005 -0.56607,0.0362 -0.95994,0.2004 -0.59642,0.24855 -1.03644,0.6247 -1.31612,1.12328 l -0.215,0.38239 0,5.20646 0,5.20645 0.21719,0.38975 c 0.36007,0.64329 0.80546,0.99286 1.57022,1.2336 0.29714,0.0935 0.4984,0.11063 1.06418,0.0937 0.61408,-0.0183 0.74449,-0.0418 1.07288,-0.19304 0.79905,-0.36803 1.28749,-0.89211 1.45945,-1.56451 0.058,-0.22716 0.0744,-1.6992 0.0587,-5.3425 l -0.0217,-5.02997 -0.22152,-0.39526 c -0.27483,-0.49109 -0.71567,-0.86302 -1.32699,-1.11777 -0.43095,-0.1796 -0.51343,-0.19304 -1.16191,-0.19304 -0.0816,0 -0.15388,-7.2e-4 -0.21936,0 z m 15.50891,0.37504 c -5.81793,0 -11.63673,0.0258 -11.69738,0.0773 -0.0639,0.0541 -0.0825,1.78643 -0.0825,7.43648 0,7.25427 10e-4,7.37068 0.14116,7.75453 0.23955,0.65651 0.91662,1.24962 1.71574,1.50568 0.33632,0.10776 0.59614,0.13527 1.59628,0.16178 l 1.19449,0.0312 0.0217,2.65287 c 0.0217,2.64419 0.0224,2.65596 0.18895,3.00768 0.11843,0.25029 0.29174,0.45816 0.59508,0.71516 0.44114,0.37373 0.7233,0.50944 1.32263,0.63977 0.65855,0.1432 1.169,0.0859 1.9112,-0.2151 0.51816,-0.21012 0.95211,-0.59726 1.24227,-1.11042 l 0.18243,-0.32356 0.0196,-2.69147 0.0217,-2.69148 1.62669,0 1.62668,0 0.0217,2.69148 0.0196,2.69331 0.22587,0.38056 c 0.26962,0.4547 0.43865,0.62556 0.9013,0.90083 1.42552,0.84817 3.3495,0.39909 4.11124,-0.95967 l 0.18243,-0.32356 0.0217,-2.68412 0.0196,-2.68228 1.26615,-0.0331 c 1.11374,-0.0279 1.30542,-0.0469 1.61149,-0.16362 0.85668,-0.32658 1.45089,-0.89542 1.67229,-1.59944 0.13332,-0.42394 0.14797,-14.98119 0.0151,-15.09357 -0.0606,-0.0513 -5.87726,-0.0773 -11.69518,-0.0773 z"
       id="path3772-8" />
  </g>
</svg>
