<?xml version="1.0" encoding="UTF-8" standalone="no"?>
<!-- Created with Inkscape (http://www.inkscape.org/) -->

<svg
   xmlns:dc="http://purl.org/dc/elements/1.1/"
   xmlns:cc="http://creativecommons.org/ns#"
   xmlns:rdf="http://www.w3.org/1999/02/22-rdf-syntax-ns#"
   xmlns:svg="http://www.w3.org/2000/svg"
   xmlns="http://www.w3.org/2000/svg"
   xmlns:sodipodi="http://sodipodi.sourceforge.net/DTD/sodipodi-0.dtd"
   xmlns:inkscape="http://www.inkscape.org/namespaces/inkscape"
   width="33.860001"
   height="39.999985"
   id="svg3438"
   version="1.1"
   inkscape:version="0.48.5 r10040"
   sodipodi:docname="android.svg">
  <defs
     id="defs3440" />
  <sodipodi:namedview
     id="base"
     pagecolor="#ffffff"
     bordercolor="#666666"
     borderopacity="1.0"
     inkscape:pageopacity="0.0"
     inkscape:pageshadow="2"
     inkscape:zoom="0.35"
     inkscape:cx="14.97208"
     inkscape:cy="17.686982"
     inkscape:document-units="px"
     inkscape:current-layer="layer1"
     showgrid="false"
     fit-margin-top="0"
     fit-margin-left="0"
     fit-margin-right="0"
     fit-margin-bottom="0"
     inkscape:window-width="1280"
     inkscape:window-height="737"
     inkscape:window-x="-4"
     inkscape:window-y="-4"
     inkscape:window-maximized="1" />
  <metadata
     id="metadata3443">
    <rdf:RDF>
      <cc:Work
         rdf:about="">
        <dc:format>image/svg+xml</dc:format>
        <dc:type
           rdf:resource="http://purl.org/dc/dcmitype/StillImage" />
        <dc:title></dc:title>
      </cc:Work>
    </rdf:RDF>
  </metadata>
  <g
     inkscape:label="Capa 1"
     inkscape:groupmode="layer"
     id="layer1"
     transform="translate(-335.02792,-510.04917)">
    <path
       inkscape:connector-curvature="0"
       style="fill:#ffffff;stroke:none;display:inline"
       d="m 358.82139,510.04944 c -0.15907,-0.005 -0.32219,0.0606 -0.41263,0.18794 -0.1174,0.16535 -1.33764,2.34182 -1.56676,2.79442 -0.0546,0.10787 -0.10743,0.20503 -0.11644,0.21653 -0.009,0.0115 -0.42768,-0.1115 -0.93147,-0.27373 -0.50378,-0.16222 -1.13802,-0.34021 -1.40946,-0.39628 -0.7774,-0.16058 -2.0907,-0.25243 -2.99462,-0.20835 -1.43846,0.0701 -2.05676,0.18855 -3.48077,0.66592 -0.35698,0.11967 -0.67144,0.20267 -0.69861,0.18589 -0.0552,-0.0341 -0.20307,-0.29702 -1.10101,-1.95488 -0.15579,-0.28761 -0.38266,-0.67736 -0.50252,-0.8661 -0.19839,-0.31245 -0.23833,-0.34318 -0.45756,-0.34318 -0.13244,0 -0.29581,0.0487 -0.36156,0.10821 -0.24986,0.22612 -0.19742,0.35421 1.04995,2.59833 0.25837,0.46482 0.45678,0.88357 0.43919,0.92943 -0.0176,0.0459 -0.15579,0.14581 -0.30642,0.22266 -0.15062,0.0768 -0.30738,0.16765 -0.34726,0.20018 -0.0399,0.0326 -0.23327,0.17339 -0.431,0.31458 -0.93759,0.66943 -1.26925,0.96854 -1.96713,1.77103 -0.57081,0.65637 -0.89,1.08808 -1.13574,1.53612 -0.0986,0.17976 -0.20203,0.35625 -0.22879,0.39219 -0.0923,0.12395 -0.51971,1.17848 -0.64959,1.60148 -0.29029,0.94546 -0.52674,2.62414 -0.39219,2.78626 0.0632,0.0762 1.80726,0.0899 11.14502,0.0899 10.47533,0 11.07278,-0.006 11.13071,-0.11439 0.12856,-0.24027 -0.11897,-1.88881 -0.43306,-2.89248 -0.2954,-0.94394 -1.03709,-2.27472 -1.8037,-3.23564 -0.43706,-0.54783 -1.60218,-1.58039 -2.28784,-2.02637 -0.38691,-0.25166 -0.76555,-0.50386 -0.83955,-0.55971 l -0.13482,-0.1021 0.1818,-0.35544 c 0.0989,-0.1958 0.45743,-0.85016 0.79665,-1.45441 0.66569,-1.18575 0.76171,-1.47147 0.57196,-1.68114 -0.0803,-0.0888 -0.20107,-0.13354 -0.32478,-0.13687 z m -11.85997,6.78179 c 0.46577,0 0.84364,0.37787 0.84364,0.84365 0,0.46576 -0.37787,0.84363 -0.84364,0.84363 -0.46577,0 -0.84364,-0.37787 -0.84364,-0.84363 0,-0.46578 0.37787,-0.84365 0.84364,-0.84365 z m 9.98272,0 c 0.46576,0 0.84363,0.37787 0.84363,0.84365 0,0.46576 -0.37787,0.84363 -0.84363,0.84363 -0.46578,0 -0.84365,-0.37787 -0.84365,-0.84363 0,-0.46578 0.37787,-0.84365 0.84365,-0.84365 z m 9.34743,6.04847 c -1.0794,0.0222 -1.96557,0.64479 -2.37362,1.68931 l -0.16752,0.42489 0.0205,5.6869 0.0184,5.6869 0.1818,0.38607 c 0.0998,0.2132 0.28264,0.51273 0.4065,0.66388 0.27356,0.33385 0.84628,0.72404 1.18681,0.80891 0.13781,0.0344 0.53069,0.0561 0.87224,0.0469 0.51669,-0.0138 0.68698,-0.0473 1.01931,-0.19815 0.49805,-0.22601 0.93161,-0.6598 1.21541,-1.21745 l 0.21652,-0.42488 0,-5.78495 0,-5.78496 -0.15727,-0.39015 c -0.32737,-0.81295 -1.23929,-1.50125 -2.09787,-1.58105 -0.11547,-0.0102 -0.22947,-0.0146 -0.34113,-0.0122 z m -28.92067,0.0225 c -0.43104,0.006 -0.53242,0.0403 -0.90287,0.22266 -0.56098,0.27617 -0.97483,0.69411 -1.23788,1.24809 l -0.20223,0.42489 0,5.78494 0,5.78495 0.20427,0.43305 c 0.33867,0.71478 0.75759,1.10318 1.47688,1.37067 0.27948,0.10392 0.46879,0.12292 1.00093,0.10414 0.57757,-0.0204 0.70023,-0.0465 1.0091,-0.21448 0.75155,-0.40892 1.21095,-0.99124 1.3727,-1.73835 0.0546,-0.2524 0.07,-1.88799 0.0552,-5.93611 l -0.0205,-5.58885 -0.20835,-0.43918 c -0.2585,-0.54565 -0.67313,-0.95892 -1.2481,-1.24197 -0.40534,-0.19955 -0.48292,-0.21448 -1.09285,-0.21448 -0.0768,0 -0.14474,-8.1e-4 -0.20632,0 z m 14.58699,0.41671 c -5.47209,0 -10.94499,0.0287 -11.00204,0.0858 -0.0602,0.0602 -0.0776,1.98492 -0.0776,8.26276 0,8.0603 0.001,8.18965 0.13278,8.61614 0.2253,0.72946 0.86212,1.38847 1.61373,1.67298 0.31634,0.11973 0.56072,0.1503 1.5014,0.17975 l 1.12349,0.0347 0.0205,2.94763 c 0.0205,2.93799 0.0211,2.95106 0.17773,3.34187 0.11138,0.2781 0.27439,0.50906 0.55969,0.79461 0.41493,0.41527 0.68031,0.56606 1.24401,0.71086 0.6194,0.15911 1.09952,0.0954 1.79759,-0.239 0.48736,-0.23347 0.89551,-0.66361 1.16843,-1.23379 l 0.17159,-0.35952 0.0184,-2.99052 0.0205,-2.99053 1.52999,0 1.52998,0 0.0205,2.99053 0.0184,2.99257 0.21243,0.42284 c 0.25359,0.50523 0.41259,0.69507 0.84773,1.00092 1.34078,0.94242 3.15039,0.44343 3.86685,-1.06629 l 0.17158,-0.35952 0.0205,-2.98235 0.0184,-2.98031 1.19089,-0.0368 c 1.04754,-0.031 1.22783,-0.0521 1.51569,-0.1818 0.80575,-0.36286 1.36465,-0.9949 1.57289,-1.77715 0.12539,-0.47105 0.13916,-16.64577 0.0143,-16.77064 -0.057,-0.057 -5.52789,-0.0858 -10.99998,-0.0858 z"
       id="path3772-8"
       inkscape:export-filename="D:\Ivan\Escritorio\DAW\Servidor\UT3\Mockups\Plataformas\android.png"
       inkscape:export-xdpi="90"
       inkscape:export-ydpi="90" />
  </g>
</svg>
