<?xml version="1.0" encoding="UTF-8" standalone="no"?>
<!-- Created with Inkscape (http://www.inkscape.org/) -->

<svg
   xmlns:dc="http://purl.org/dc/elements/1.1/"
   xmlns:cc="http://creativecommons.org/ns#"
   xmlns:rdf="http://www.w3.org/1999/02/22-rdf-syntax-ns#"
   xmlns:svg="http://www.w3.org/2000/svg"
   xmlns="http://www.w3.org/2000/svg"
   xmlns:sodipodi="http://sodipodi.sourceforge.net/DTD/sodipodi-0.dtd"
   xmlns:inkscape="http://www.inkscape.org/namespaces/inkscape"
   width="35.999619"
   height="36.000809"
   id="svg3412"
   version="1.1"
   inkscape:version="0.48.5 r10040"
   sodipodi:docname="xboxone.svg">
  <defs
     id="defs3414" />
  <sodipodi:namedview
     id="base"
     pagecolor="#ffffff"
     bordercolor="#666666"
     borderopacity="1.0"
     inkscape:pageopacity="0.0"
     inkscape:pageshadow="2"
     inkscape:zoom="5.6"
     inkscape:cx="16.430291"
     inkscape:cy="20.444619"
     inkscape:document-units="px"
     inkscape:current-layer="layer1"
     showgrid="false"
     fit-margin-top="0"
     fit-margin-left="0"
     fit-margin-right="0"
     fit-margin-bottom="0"
     inkscape:window-width="1280"
     inkscape:window-height="737"
     inkscape:window-x="-4"
     inkscape:window-y="-4"
     inkscape:window-maximized="1" />
  <metadata
     id="metadata3417">
    <rdf:RDF>
      <cc:Work
         rdf:about="">
        <dc:format>image/svg+xml</dc:format>
        <dc:type
           rdf:resource="http://purl.org/dc/dcmitype/StillImage" />
        <dc:title />
      </cc:Work>
    </rdf:RDF>
  </metadata>
  <g
     inkscape:label="Capa 1"
     inkscape:groupmode="layer"
     id="layer1"
     transform="translate(-553.74168,-496.90563)">
    <path
       style="fill:#ffffff;fill-opacity:1;fill-rule:nonzero;stroke:none;display:inline"
       d="m 571.54532,496.9091 c -0.15929,0.004 -0.31857,0.009 -0.47786,0.0132 -0.24287,0.0147 -0.48583,0.028 -0.72853,0.0452 -0.0808,0.006 -0.16099,0.0175 -0.24152,0.026 -0.10549,0.0122 -0.21129,0.0215 -0.31664,0.0349 -0.13935,0.0174 -0.2784,0.0371 -0.41763,0.0556 -0.13293,0.0175 -0.26575,0.0358 -0.39838,0.0556 -0.15259,0.0217 -0.3043,0.0491 -0.45677,0.0716 -0.14735,0.0227 -0.2947,0.0453 -0.44207,0.068 -0.0704,0.0187 -0.14234,0.0311 -0.2136,0.0462 -0.22304,0.0588 -0.44605,0.11778 -0.66844,0.17902 -0.17692,0.0496 -0.35407,0.0984 -0.53085,0.14845 -0.0728,0.0243 -0.14757,0.0416 -0.2202,0.0661 -0.0796,0.027 -0.16002,0.0514 -0.24002,0.0771 -0.0822,0.0263 -0.1655,0.0496 -0.2467,0.0791 -0.11299,0.0402 -0.22759,0.0755 -0.34108,0.1142 -0.0755,0.0241 -0.15023,0.0506 -0.2238,0.0802 -0.0935,0.0357 -0.18627,0.0735 -0.27894,0.11139 -0.17266,0.0723 -0.34531,0.14458 -0.51796,0.21686 -0.17694,0.0838 -0.35406,0.16717 -0.53015,0.25273 -0.1665,0.0824 -0.33351,0.16392 -0.4997,0.24702 -0.13599,0.0678 -0.26971,0.13997 -0.40375,0.21154 -0.15896,0.0868 -0.31573,0.17749 -0.47347,0.26644 -0.19739,0.11391 -0.39477,0.22781 -0.59238,0.34133 -0.0981,0.0701 -0.1928,0.14471 -0.28848,0.218 -0.005,0.008 -0.002,0.0199 0.009,0.0199 0.003,-0.0138 0.0199,-0.004 0.0264,-0.0132 0.0744,-0.0254 0.14787,-0.0534 0.22133,-0.0814 0.11194,-0.0404 0.22388,-0.0808 0.33583,-0.12114 0.12974,-0.0301 0.25931,-0.0611 0.38917,-0.0907 0.0716,-0.0168 0.14513,-0.0227 0.21826,-0.029 0.20932,-0.0122 0.41865,-0.0244 0.62797,-0.0366 0.0752,-0.002 0.14984,0.009 0.22461,0.0155 0.14665,0.0194 0.29335,0.0384 0.44025,0.0557 0.12671,0.0151 0.25339,0.0304 0.37981,0.0478 0.1197,0.0182 0.23897,0.0393 0.35846,0.0588 0.0744,0.0137 0.14812,0.0305 0.22227,0.0454 0.11767,0.0241 0.23506,0.0496 0.35213,0.0764 0.086,0.0237 0.17299,0.0433 0.25892,0.0672 0.2735,0.073 0.54762,0.14376 0.81971,0.22189 0.1607,0.0458 0.32111,0.0925 0.48086,0.14143 0.1218,0.0391 0.24481,0.0744 0.36653,0.11376 0.15352,0.0492 0.30572,0.10244 0.45804,0.15526 0.0978,0.0339 0.19546,0.0684 0.29246,0.10458 0.11644,0.0417 0.2298,0.0914 0.34477,0.13692 0.17454,0.0707 0.34939,0.14061 0.52372,0.2118 0.0811,0.0338 0.16202,0.0678 0.24178,0.10453 0.10639,0.0505 0.21385,0.0987 0.31976,0.15022 0.15371,0.0737 0.30813,0.14594 0.46071,0.22198 0.16927,0.0937 0.34039,0.18398 0.51121,0.27481 0.27663,0.15063 0.55326,0.30125 0.82991,0.45188 0.06,0.0357 0.11823,0.0765 0.18496,0.0991 0.0536,0.008 0.11355,0.008 0.15857,-0.0265 0.158,-0.0812 0.31649,-0.16151 0.47419,-0.24331 0.15587,-0.0824 0.31116,-0.16587 0.46612,-0.24996 0.0738,-0.036 0.14841,-0.0703 0.22306,-0.10459 0.41159,-0.19415 0.82318,-0.3883 1.23477,-0.58246 0.19191,-0.0845 0.38478,-0.16681 0.57704,-0.25051 0.0712,-0.0301 0.14143,-0.0628 0.21335,-0.0913 0.33295,-0.12828 0.66577,-0.25695 0.99882,-0.38501 0.0701,-0.0271 0.14107,-0.0516 0.21255,-0.0748 0.17257,-0.0574 0.34468,-0.1164 0.51934,-0.16725 0.15255,-0.0465 0.30784,-0.083 0.46215,-0.12307 0.14748,-0.0379 0.29506,-0.0754 0.44306,-0.11123 0.0927,-0.0222 0.18487,-0.0472 0.27842,-0.0661 0.0791,-0.0166 0.15785,-0.0344 0.23712,-0.0499 0.09,-0.0133 0.17914,-0.0315 0.26891,-0.0462 0.0722,-0.0103 0.14471,-0.0173 0.2173,-0.0235 0.21126,-0.0186 0.4224,-0.0388 0.6339,-0.0546 0.17968,-0.0151 0.3598,-0.0238 0.53962,-0.0371 0.0763,-0.006 0.15296,-0.007 0.22934,-0.0116 0.0683,-0.007 0.13684,0.003 0.20518,0.005 0.0859,0.007 0.17216,0.0119 0.25778,0.0227 0.09,0.011 0.18049,0.0181 0.26968,0.0347 0.0798,0.0126 0.15859,0.0307 0.23651,0.052 0.12367,0.0337 0.24674,0.0696 0.37014,0.10428 0.0934,0.0352 0.18736,0.0694 0.27819,0.11101 0.035,0.0159 0.07,0.0317 0.10498,0.0475 -0.0579,-0.0518 -0.12229,-0.0954 -0.18498,-0.14094 -0.3127,-0.19378 -0.62541,-0.38757 -0.93812,-0.58135 -0.23342,-0.12919 -0.46685,-0.25838 -0.70029,-0.38757 -0.18812,-0.089 -0.37642,-0.17747 -0.56535,-0.26469 -0.12207,-0.0564 -0.24447,-0.11214 -0.36695,-0.16764 -0.12854,-0.0557 -0.25679,-0.11191 -0.38549,-0.16712 -0.22432,-0.0917 -0.44832,-0.18433 -0.67369,-0.27349 -0.073,-0.03 -0.1478,-0.0549 -0.22209,-0.0814 -0.0782,-0.0273 -0.15592,-0.0557 -0.23428,-0.0823 -0.17134,-0.0544 -0.34269,-0.10897 -0.51403,-0.16346 -0.16517,-0.0465 -0.32999,-0.0942 -0.49536,-0.14 -0.1456,-0.04 -0.29196,-0.0772 -0.43882,-0.1123 -0.11518,-0.0281 -0.23065,-0.055 -0.34623,-0.0813 -0.11959,-0.0256 -0.23886,-0.0527 -0.358,-0.0804 -0.30023,-0.0558 -0.60045,-0.11158 -0.90067,-0.16735 -0.17618,-0.0242 -0.35235,-0.0485 -0.52852,-0.0727 -0.24738,-0.022 -0.49476,-0.0441 -0.74213,-0.0661 -0.26477,-0.0158 -0.52949,-0.0323 -0.79428,-0.0475 -0.14989,-0.008 -0.29992,-0.013 -0.44993,-0.0185 -0.0983,-0.006 -0.1967,-0.009 -0.2951,-0.0132 -0.0418,-5.4e-4 -0.0836,5.3e-4 -0.12551,0.002 z m 12.44435,31.13331 c 0.0649,-0.10409 0.0705,-0.23049 0.10571,-0.34572 0.0172,-0.0752 0.0422,-0.1485 0.0551,-0.22462 0.0102,-0.0733 0.0115,-0.14742 0.0214,-0.22074 0.006,-0.0733 0.0152,-0.14687 0.009,-0.22052 -0.005,-0.0763 -0.0124,-0.15235 -0.0222,-0.22818 -0.008,-0.0789 -0.0176,-0.15753 -0.0296,-0.23589 -0.0121,-0.0787 -0.0281,-0.15655 -0.0471,-0.23382 -0.0126,-0.0702 -0.0368,-0.13751 -0.0551,-0.20633 -0.0211,-0.0792 -0.042,-0.1584 -0.0649,-0.23707 -0.0246,-0.0836 -0.0482,-0.1675 -0.0738,-0.25081 -0.0203,-0.0671 -0.0481,-0.13154 -0.0664,-0.19917 -0.025,-0.0731 -0.0574,-0.14339 -0.0857,-0.21526 -0.0487,-0.12847 -0.10054,-0.25576 -0.15382,-0.3824 -0.0283,-0.071 -0.0609,-0.14023 -0.0927,-0.20972 -0.0378,-0.0824 -0.082,-0.16154 -0.12326,-0.24222 -0.12064,-0.23073 -0.23999,-0.46213 -0.36034,-0.69302 -0.0384,-0.0728 -0.0766,-0.14554 -0.11749,-0.21693 -0.0722,-0.12797 -0.14023,-0.25817 -0.21447,-0.38494 -0.0625,-0.11075 -0.12825,-0.2196 -0.19331,-0.32887 -0.0759,-0.12098 -0.15025,-0.24296 -0.22831,-0.36256 -0.0641,-0.099 -0.13266,-0.19509 -0.19955,-0.29227 -0.12897,-0.18617 -0.25796,-0.37235 -0.38693,-0.55852 -0.12574,-0.16849 -0.25052,-0.33769 -0.37689,-0.5057 -0.13,-0.17195 -0.26114,-0.34302 -0.39434,-0.5125 -0.14886,-0.19058 -0.29771,-0.38114 -0.44657,-0.57173 -0.22083,-0.26381 -0.44139,-0.52787 -0.6624,-0.79153 -0.19305,-0.22556 -0.38554,-0.4516 -0.57894,-0.67686 -0.0788,-0.0905 -0.15765,-0.18077 -0.23825,-0.26961 -0.10848,-0.12051 -0.21702,-0.241 -0.3279,-0.35932 -0.24157,-0.26021 -0.48344,-0.52016 -0.72469,-0.78066 -0.0765,-0.0838 -0.15364,-0.16705 -0.23172,-0.2494 -0.11842,-0.12113 -0.23698,-0.24213 -0.35692,-0.36177 -0.29806,-0.29918 -0.59583,-0.59866 -0.89409,-0.89765 -0.14928,-0.146 -0.29801,-0.29256 -0.44763,-0.4382 -0.62949,-0.60258 -1.25897,-1.20515 -1.88845,-1.80773 -0.38618,-0.34388 -0.77274,-0.68732 -1.15867,-1.03149 -0.17347,-0.15514 -0.34661,-0.31067 -0.52029,-0.46558 -0.20009,-0.17408 -0.40018,-0.34817 -0.60027,-0.52225 -0.95647,0.82359 -1.91294,1.64717 -2.8694,2.47075 -0.31527,0.28689 -0.63099,0.5733 -0.94597,0.8605 -0.11361,0.10456 -0.22804,0.20825 -0.34115,0.31335 -0.13121,0.12498 -0.26316,0.24919 -0.39393,0.37464 -0.20232,0.19805 -0.40465,0.39611 -0.60698,0.59416 -0.44117,0.4529 -0.88233,0.9058 -1.3235,1.3587 -0.2738,0.28994 -0.54761,0.57989 -0.82141,0.86982 -0.0643,0.0732 -0.12948,0.1455 -0.19316,0.21915 -0.28017,0.34076 -0.5609,0.68106 -0.84072,1.02209 -0.21399,0.26231 -0.42797,0.5246 -0.64195,0.7869 -0.0448,0.0592 -0.0923,0.11644 -0.13654,0.17617 -0.19495,0.26724 -0.39054,0.53399 -0.58509,0.80151 -0.0492,0.0685 -0.0995,0.13632 -0.14603,0.20678 -0.0571,0.0856 -0.11672,0.16952 -0.17616,0.25351 -0.0684,0.10106 -0.13581,0.20273 -0.2022,0.3051 -0.0964,0.14786 -0.19364,0.29514 -0.28942,0.44338 -0.17233,0.27315 -0.345,0.54609 -0.51711,0.81939 -0.0544,0.0861 -0.10335,0.17547 -0.15455,0.26349 -0.0427,0.0686 -0.0752,0.1425 -0.11015,0.21514 -0.17565,0.36697 -0.34971,0.73467 -0.52352,1.1025 -0.033,0.0754 -0.0643,0.15149 -0.0953,0.22771 -0.0365,0.0878 -0.0731,0.17558 -0.10957,0.26337 -0.032,0.0853 -0.0627,0.17104 -0.0969,0.25545 -0.043,0.11852 -0.0837,0.23782 -0.12553,0.35674 -0.0235,0.077 -0.047,0.15414 -0.0704,0.23121 -0.0197,0.0797 -0.0381,0.15972 -0.0551,0.24003 -0.0182,0.0843 -0.0376,0.16829 -0.0553,0.25269 -0.0153,0.073 -0.0263,0.14671 -0.035,0.22076 -0.0106,0.099 -0.0201,0.19809 -0.0286,0.29728 -10e-4,0.0706 0.005,0.14101 0.009,0.21141 0.006,0.0779 0.0261,0.15376 0.0391,0.23063 0.0132,0.073 0.0281,0.14566 0.0471,0.2174 0.0206,0.0837 0.04,0.16773 0.0657,0.25004 -0.0194,-0.0965 -0.0257,0.0334 0.14093,0.19598 0.10055,0.0888 0.20114,0.17764 0.3017,0.26646 0.15635,0.12919 0.31271,0.25838 0.46906,0.38756 0.0994,0.0769 0.19817,0.1549 0.29808,0.23128 0.16285,0.12352 0.32969,0.24164 0.49589,0.36058 0.11227,0.079 0.22357,0.15934 0.33532,0.23904 0.14989,0.10326 0.29977,0.20653 0.44965,0.3098 0.29142,0.18423 0.58283,0.36849 0.87425,0.55272 0.0666,0.0399 0.13405,0.0782 0.2026,0.11452 0.0886,0.0465 0.17733,0.0928 0.26717,0.13688 0.0885,0.0439 0.17856,0.0844 0.26772,0.1268 0.25355,0.11887 0.50673,0.23852 0.7605,0.3569 0.0949,0.0436 0.18928,0.088 0.28439,0.13097 0.0954,0.0405 0.19046,0.0814 0.28545,0.12267 0.15987,0.0604 0.31952,0.12127 0.47865,0.18356 0.0823,0.0321 0.16463,0.0645 0.24801,0.0939 0.0929,0.0336 0.1856,0.068 0.27871,0.10106 0.1156,0.0386 0.23067,0.0788 0.3472,0.11449 0.13186,0.0407 0.26266,0.0849 0.39373,0.12804 0.20407,0.0543 0.40813,0.10863 0.6122,0.16295 0.11719,0.0283 0.23464,0.0555 0.35234,0.0815 0.16052,0.0362 0.32096,0.073 0.48169,0.10828 0.0906,0.0192 0.18159,0.0357 0.27252,0.053 0.10576,0.0203 0.21127,0.0418 0.3172,0.0612 0.12293,0.0213 0.24586,0.0425 0.3688,0.0639 0.13201,0.0165 0.26391,0.0338 0.39599,0.0498 0.0784,0.007 0.1564,0.0161 0.2342,0.0275 0.0737,0.008 0.14785,0.0111 0.22153,0.0193 0.0791,0.007 0.15775,0.0204 0.23733,0.0216 0.0847,0.004 0.16925,0.0116 0.25389,0.0171 0.0778,0.005 0.15533,0.012 0.23312,0.0155 0.33301,0.0126 0.66603,0.0255 0.99911,0.0365 0.12375,0.004 0.24748,0.009 0.3713,0.0109 0.079,0.005 0.15799,-0.003 0.23697,-0.005 0.13307,-0.005 0.26598,-0.0136 0.39884,-0.0227 0.15594,-0.0106 0.31177,-0.0229 0.46747,-0.0365 0.13554,-0.0109 0.27091,-0.0236 0.40623,-0.0367 0.13441,-0.0123 0.26867,-0.0262 0.40249,-0.0438 0.1354,-0.0179 0.27071,-0.0363 0.40593,-0.0556 0.30939,-0.0462 0.61862,-0.0934 0.92805,-0.13931 0.14754,-0.0338 0.29508,-0.0676 0.44263,-0.10126 0.28473,-0.0754 0.56968,-0.15005 0.85428,-0.22596 0.10975,-0.0299 0.21966,-0.0592 0.32865,-0.0919 0.0948,-0.0277 0.18976,-0.0548 0.28371,-0.0852 0.11708,-0.0424 0.2363,-0.0787 0.35375,-0.12015 0.17059,-0.0586 0.34072,-0.11862 0.51057,-0.17931 0.12368,-0.0448 0.24725,-0.09 0.37108,-0.13435 0.0713,-0.0272 0.13949,-0.0616 0.20921,-0.0925 0.0737,-0.0285 0.14679,-0.0585 0.21866,-0.0914 0.0809,-0.0387 0.16303,-0.0747 0.24437,-0.11245 0.24413,-0.11812 0.48696,-0.23886 0.73052,-0.35816 0.0823,-0.041 0.16593,-0.0797 0.24662,-0.12396 0.27725,-0.14648 0.55095,-0.29954 0.82584,-0.45037 0.13508,-0.077 0.27045,-0.15359 0.4052,-0.23122 0.0945,-0.0612 0.18953,-0.12169 0.28369,-0.18344 0.12974,-0.089 0.25996,-0.1774 0.39016,-0.26579 0.0715,-0.0536 0.1427,-0.10776 0.2159,-0.15912 0.1782,-0.12818 0.35178,-0.26261 0.52622,-0.39581 0.0636,-0.0502 0.12942,-0.0976 0.19253,-0.14846 0.12589,-0.1025 0.24824,-0.20926 0.37303,-0.31309 0.0913,-0.0768 0.18197,-0.15424 0.27083,-0.23382 m 2.47615,-2.63891 c 0.0844,-0.11084 0.16805,-0.22227 0.25148,-0.33385 0.0703,-0.0974 0.1413,-0.19435 0.20929,-0.29341 0.0635,-0.0908 0.12695,-0.18161 0.18837,-0.27383 0.0522,-0.0774 0.10512,-0.15442 0.15485,-0.23348 0.13419,-0.20891 0.26897,-0.41746 0.40279,-0.62659 0.0564,-0.0897 0.11271,-0.17926 0.16906,-0.26887 0.0621,-0.11473 0.12488,-0.22903 0.18644,-0.344 0.0717,-0.14104 0.1443,-0.28166 0.21548,-0.42296 0.0894,-0.18777 0.17919,-0.3753 0.26657,-0.56401 0.0437,-0.094 0.0881,-0.1877 0.1317,-0.28175 0.0332,-0.0733 0.0643,-0.14735 0.0945,-0.22184 0.0607,-0.14747 0.12145,-0.29495 0.18218,-0.44241 0.0663,-0.1768 0.13184,-0.35392 0.19873,-0.5305 0.0363,-0.0938 0.0739,-0.18714 0.10743,-0.28202 0.0285,-0.0741 0.0536,-0.14923 0.0744,-0.22583 0.0239,-0.0769 0.0502,-0.15314 0.0742,-0.23008 0.0246,-0.0774 0.0472,-0.15527 0.067,-0.23399 0.0643,-0.24621 0.13063,-0.49191 0.19366,-0.73846 0.0287,-0.11113 0.0575,-0.22226 0.0862,-0.33339 0.0436,-0.19641 0.0816,-0.39397 0.12146,-0.59114 0.0344,-0.17145 0.0688,-0.34287 0.10316,-0.51431 0.019,-0.1336 0.0382,-0.26719 0.0573,-0.40078 0.0126,-0.12443 0.0228,-0.24912 0.0386,-0.3732 0.0143,-0.12077 0.0286,-0.24154 0.0429,-0.36231 0.009,-0.10999 0.0188,-0.21993 0.0272,-0.32996 0.0105,-0.17762 0.0203,-0.35529 0.031,-0.5329 0.009,-0.10915 0.0151,-0.2185 0.0179,-0.32798 0.0104,-0.30256 0.0201,-0.60515 0.0295,-0.90776 -0.006,-0.12993 -0.0117,-0.25985 -0.0176,-0.38977 -0.027,-0.33503 -0.0532,-0.67013 -0.0821,-1.00501 -0.009,-0.10146 -0.0161,-0.20305 -0.028,-0.30422 -0.0166,-0.14033 -0.0342,-0.28054 -0.0519,-0.42074 -0.0238,-0.17793 -0.0476,-0.35586 -0.0715,-0.53379 -0.0294,-0.17103 -0.0587,-0.34206 -0.088,-0.5131 -0.0436,-0.20669 -0.0908,-0.41257 -0.13653,-0.61878 -0.0321,-0.11721 -0.064,-0.23445 -0.0936,-0.35227 -0.0448,-0.17134 -0.0918,-0.34207 -0.13756,-0.51316 -0.0484,-0.15622 -0.0969,-0.31243 -0.14734,-0.468 -0.0355,-0.10219 -0.0707,-0.20446 -0.10399,-0.3074 -0.0442,-0.1349 -0.0908,-0.26898 -0.13813,-0.40283 -0.0319,-0.0926 -0.0654,-0.18469 -0.0963,-0.27767 -0.025,-0.0727 -0.0563,-0.14317 -0.0832,-0.21517 -0.0467,-0.11608 -0.0934,-0.23217 -0.14013,-0.34826 -0.077,-0.17028 -0.15415,-0.34058 -0.23124,-0.51089 -0.12175,-0.24972 -0.24326,-0.49959 -0.36657,-0.74855 -0.0443,-0.0891 -0.0902,-0.17758 -0.13917,-0.26428 -0.10571,-0.1903 -0.20994,-0.38142 -0.31785,-0.57047 -0.0437,-0.0789 -0.0849,-0.15909 -0.13178,-0.23614 -0.0733,-0.12517 -0.14806,-0.24949 -0.22277,-0.37384 -0.0734,-0.11304 -0.14682,-0.22609 -0.22022,-0.33913 -0.12112,-0.16883 -0.24224,-0.33765 -0.36335,-0.50649 -0.11818,-0.1556 -0.23637,-0.31122 -0.35455,-0.46684 -0.055,-0.0686 -0.11141,-0.13605 -0.16536,-0.20546 -0.045,-0.0582 -0.0917,-0.11507 -0.13797,-0.17219 -0.0687,-0.0826 -0.13725,-0.16535 -0.20783,-0.24635 -0.10147,-0.11721 -0.19994,-0.237 -0.30318,-0.35267 -0.0538,-0.0611 -0.10702,-0.12265 -0.16307,-0.18168 -0.11594,-0.12438 -0.23035,-0.25019 -0.34836,-0.37262 -0.0799,-0.0843 -0.1645,-0.16382 -0.24679,-0.2457 -0.35053,-0.29946 -1.10006,0.24807 -0.0526,-0.0356 -0.0594,-0.0365 -0.12765,-0.0545 -0.1938,-0.0749 -0.0763,-0.02 -0.15642,-0.0182 -0.23451,-0.0272 -0.0722,-0.005 -0.14455,5.4e-4 -0.21609,0.0103 -0.0721,0.0107 -0.14495,0.0164 -0.21596,0.0331 -0.0742,0.0169 -0.14792,0.0357 -0.21999,0.0602 -0.0759,0.0228 -0.15098,0.0484 -0.2255,0.0755 -0.12789,0.0466 -0.25559,0.0936 -0.38321,0.14091 -0.0737,0.0333 -0.14798,0.065 -0.22021,0.10126 -0.0843,0.04 -0.16677,0.0836 -0.2496,0.12654 -0.0741,0.0393 -0.14814,0.0788 -0.22355,0.11552 -0.0651,0.0348 -0.12862,0.0728 -0.19393,0.10731 -0.0747,0.0408 -0.14735,0.0853 -0.2209,0.12811 -0.22104,0.12983 -0.44075,0.26192 -0.66013,0.39455 -0.17516,0.12522 -0.35074,0.24985 -0.52563,0.37544 -0.1698,0.12663 -0.33959,0.25325 -0.50939,0.37987 -0.0599,0.0489 -0.12086,0.0967 -0.18278,0.14314 -0.19774,0.16579 -0.39577,0.33125 -0.59333,0.49726 -0.17183,0.14806 -0.34433,0.29534 -0.51571,0.4439 -0.16023,0.14106 -0.32303,0.27914 -0.48306,0.4204 -0.0598,0.0512 -0.11506,0.10736 -0.17258,0.16105 -0.18461,0.17594 -0.37063,0.3504 -0.55171,0.53001 -0.0885,0.0876 -0.17625,0.17624 -0.26645,0.26224 -0.10229,0.0975 -0.20321,0.19639 -0.30475,0.29465 -0.048,0.0404 -0.0941,0.10004 -0.0832,0.16658 0.008,0.072 0.0687,0.11798 0.10709,0.17399 0.21851,0.27928 0.43462,0.56044 0.65202,0.84057 0.10404,0.13461 0.20856,0.26883 0.31231,0.40366 0.29277,0.39187 0.58604,0.78338 0.87848,1.1755 0.15662,0.21143 0.31378,0.42247 0.47006,0.63414 0.13183,0.1818 0.26452,0.36297 0.39579,0.54517 0.20141,0.28216 0.40345,0.56388 0.60447,0.84631 0.13075,0.1861 0.26193,0.37191 0.39241,0.5582 0.15769,0.23091 0.31417,0.46267 0.46847,0.69586 0.22908,0.34462 0.45773,0.68954 0.68564,1.03494 0.13133,0.20264 0.26346,0.40479 0.39429,0.60775 0.10421,0.16377 0.20885,0.32727 0.3112,0.49218 0.1821,0.29085 0.36377,0.58198 0.54472,0.87353 0.0772,0.12613 0.15364,0.2528 0.23144,0.37858 0.0417,0.0622 0.0812,0.1257 0.11598,0.19202 0.0506,0.0902 0.10177,0.17997 0.14982,0.27149 0.23595,0.44074 0.47139,0.88175 0.70713,1.32261 0.1136,0.23918 0.22819,0.47788 0.34111,0.71739 0.0979,0.20711 0.19255,0.41575 0.2887,0.62368 0.0633,0.14467 0.12497,0.28998 0.18623,0.4355 0.032,0.0734 0.061,0.14811 0.0901,0.22276 0.0563,0.14316 0.1116,0.28669 0.16857,0.42959 0.0233,0.0763 0.0531,0.15036 0.0785,0.22598 0.0381,0.10979 0.0767,0.21936 0.11535,0.32895 0.0293,0.0974 0.0609,0.19411 0.0858,0.29272 0.0207,0.0762 0.0401,0.1527 0.0581,0.22957 0.0402,0.16695 0.0812,0.33372 0.11894,0.50126 0.063,0.27652 0.12468,0.55331 0.18693,0.82999 0.0262,0.12116 0.0533,0.24213 0.079,0.36342 0.0212,0.1125 0.0424,0.22498 0.0637,0.33747 0.0113,0.0768 0.0199,0.15388 0.0265,0.23123 0.0102,0.10264 0.022,0.20519 0.0265,0.30829 0.007,0.1127 0.0166,0.22532 0.0212,0.3382 0.005,0.0942 0.008,0.18852 0.0119,0.28279 0.002,0.0739 -0.007,0.14738 -0.0139,0.22083 -0.014,0.13885 -0.0236,0.2781 -0.0372,0.41697 -0.0102,0.0875 -0.0181,0.17515 -0.0258,0.26286 -0.005,0.0701 -0.0275,0.1368 -0.048,0.20344 -0.0191,0.0741 -0.0578,0.14067 -0.10034,0.20352 m -26.34571,-24.11478 c -0.064,0.005 -0.13053,-0.005 -0.19158,0.0199 -0.0654,0.0348 -0.11473,0.0923 -0.16957,0.14093 -0.20186,0.20113 -0.40373,0.40225 -0.6056,0.60338 -0.0763,0.0807 -0.15267,0.16149 -0.22902,0.24222 -0.0552,0.0654 -0.10981,0.13119 -0.16271,0.19844 -0.14799,0.18226 -0.29679,0.36386 -0.44508,0.54588 -0.12919,0.16735 -0.25839,0.33471 -0.38758,0.50208 -0.0535,0.0735 -0.1051,0.14834 -0.16075,0.22021 -0.0447,0.061 -0.0873,0.1233 -0.12773,0.18717 -0.0691,0.10372 -0.13735,0.20793 -0.2048,0.3127 -0.0462,0.0682 -0.0932,0.13591 -0.13666,0.2059 -0.10628,0.16569 -0.21462,0.33006 -0.32079,0.49581 -0.0934,0.14486 -0.18685,0.28972 -0.28027,0.43458 -0.038,0.069 -0.0747,0.13857 -0.10995,0.20897 -0.0924,0.1763 -0.18511,0.35248 -0.27763,0.52873 -0.0891,0.18893 -0.17869,0.37757 -0.26732,0.56669 -0.0498,0.11164 -0.10014,0.22299 -0.14949,0.33483 -0.0745,0.17639 -0.14934,0.35262 -0.22182,0.52986 -0.0438,0.10621 -0.0883,0.21216 -0.12993,0.31929 -0.0314,0.0742 -0.0584,0.15 -0.0848,0.22603 -0.0796,0.22591 -0.16022,0.45141 -0.24109,0.67684 -0.0455,0.15141 -0.0924,0.30243 -0.13524,0.45464 -0.0273,0.0956 -0.0556,0.19083 -0.0814,0.28676 -0.0343,0.13842 -0.0663,0.27742 -0.0988,0.41627 -0.0341,0.15433 -0.0686,0.30857 -0.10025,0.46342 -0.0496,0.23775 -0.10065,0.47518 -0.14629,0.7137 -0.0327,0.17762 -0.0666,0.35502 -0.10086,0.53234 -0.0134,0.0803 -0.0235,0.16094 -0.0324,0.2418 -0.0117,0.0952 -0.0243,0.19022 -0.0332,0.28572 -0.0141,0.12639 -0.0208,0.25344 -0.0326,0.38005 -0.0131,0.14401 -0.0242,0.28819 -0.0344,0.43243 -0.0133,0.19853 -0.0264,0.39709 -0.0393,0.59564 -0.007,0.2504 -0.0125,0.50082 -0.0177,0.75125 -0.002,0.0851 -0.003,0.17013 -0.006,0.25512 0.006,0.15229 0.0188,0.30417 0.0287,0.45623 0.0136,0.18551 0.0232,0.3713 0.0375,0.55677 0.0125,0.17571 0.0285,0.35116 0.0425,0.52675 0.008,0.0917 0.0187,0.18317 0.0279,0.27479 0.0218,0.16528 0.0429,0.33068 0.0674,0.49563 0.0238,0.16732 0.0458,0.33488 0.071,0.50198 0.009,0.078 0.0263,0.15445 0.0425,0.23112 0.041,0.196 0.0819,0.39199 0.12295,0.58799 0.0197,0.0755 0.0373,0.15144 0.0526,0.22794 0.017,0.0756 0.0359,0.1507 0.0568,0.22534 0.0374,0.13781 0.0743,0.27582 0.11223,0.4135 0.0612,0.20693 0.12146,0.41412 0.18306,0.62089 0.0536,0.17225 0.11669,0.34131 0.17639,0.51147 0.0604,0.17059 0.12051,0.34133 0.18318,0.51111 0.0298,0.0791 0.0599,0.158 0.0907,0.23667 0.0714,0.17425 0.144,0.34803 0.21463,0.52259 0.0403,0.0912 0.0853,0.18023 0.1284,0.27006 0.0683,0.14157 0.13774,0.28259 0.20793,0.42323 0.0585,0.11732 0.11538,0.23545 0.17555,0.35194 0.0463,0.0874 0.0932,0.17447 0.14032,0.26146 0.097,0.17316 0.19351,0.34663 0.29089,0.51958 0.0501,0.0863 0.10044,0.17258 0.15272,0.25762 0.0392,0.0623 0.0723,0.12798 0.10504,0.1937 0.0381,0.066 0.0807,0.12921 0.12112,0.19379 0.0748,0.11175 0.1522,0.22169 0.22808,0.33271 0.0628,0.0905 0.12424,0.18183 0.18781,0.2717 0.11137,0.15353 0.22194,0.30765 0.33396,0.46069 0.0466,0.0638 0.0958,0.12572 0.14562,0.18702 0.0453,0.056 0.0606,0.0817 0.1049,0.13851 -0.0363,-0.0554 -0.0448,-0.0812 -0.057,-0.14733 -0.004,-0.0708 -0.007,-0.14209 -0.005,-0.21327 10e-6,-0.13842 -0.006,-0.27679 -0.004,-0.41522 0.002,-0.0821 0.006,-0.16413 0.009,-0.24621 0.002,-0.0783 0.0102,-0.1562 0.0156,-0.23429 0.0214,-0.2148 0.0367,-0.43019 0.0594,-0.64488 0.0114,-0.11194 0.0215,-0.22403 0.0356,-0.33567 0.0206,-0.17191 0.0477,-0.34291 0.0692,-0.51468 0.009,-0.0784 0.0225,-0.15631 0.0366,-0.23398 0.0233,-0.12282 0.0436,-0.24622 0.0684,-0.36875 0.0237,-0.11227 0.0534,-0.22314 0.0798,-0.33479 0.0492,-0.20453 0.10045,-0.40852 0.15084,-0.61275 0.061,-0.20772 0.12186,-0.41547 0.18278,-0.62319 0.0383,-0.11557 0.0756,-0.23147 0.11447,-0.34684 0.0559,-0.15445 0.11025,-0.30948 0.16883,-0.46294 0.0346,-0.0914 0.0674,-0.18341 0.1051,-0.27355 0.0794,-0.1972 0.16034,-0.39376 0.24141,-0.59028 0.0355,-0.0789 0.07,-0.15811 0.1035,-0.23781 0.0849,-0.18331 0.16772,-0.36761 0.25583,-0.54942 0.0573,-0.11704 0.1159,-0.2334 0.1752,-0.34942 0.0507,-0.0957 0.10035,-0.19182 0.15355,-0.28608 0.0682,-0.12384 0.13657,-0.24762 0.2068,-0.37035 0.12671,-0.22479 0.25684,-0.44764 0.38527,-0.67144 0.0755,-0.1305 0.15008,-0.26151 0.22609,-0.39171 0.17912,-0.30091 0.35824,-0.60184 0.53736,-0.90274 0.1712,-0.2715 0.34207,-0.54323 0.51349,-0.81458 0.62234,-0.96165 1.24469,-1.9233 1.86704,-2.88496 0.29837,-0.44421 0.59623,-0.88876 0.89492,-1.33277 0.0738,-0.11098 0.15205,-0.21877 0.22742,-0.32863 0.15033,-0.21644 0.29719,-0.43524 0.44559,-0.65301 0.18653,-0.25847 0.37396,-0.51632 0.55989,-0.77524 0.11983,-0.16814 0.24538,-0.3321 0.36923,-0.49728 0.11825,-0.15718 0.23648,-0.31436 0.35473,-0.47155 0.0922,-0.11342 0.18249,-0.22841 0.27692,-0.34001 0.0643,-0.0774 0.12891,-0.15473 0.19625,-0.22957 0.0517,-0.0579 0.10507,-0.11432 0.15884,-0.17032 0.0444,-0.053 0.10362,-0.0931 0.1428,-0.14999 0.0229,-0.0333 0.0334,-0.0751 0.0202,-0.11426 -0.0151,-0.0559 -0.0621,-0.0951 -0.0993,-0.13692 -0.0545,-0.055 -0.10819,-0.1106 -0.16085,-0.16727 -0.10146,-0.10145 -0.20562,-0.20021 -0.30719,-0.3016 -0.0849,-0.0843 -0.17083,-0.16754 -0.25948,-0.24786 -0.13479,-0.12299 -0.26977,-0.24577 -0.40505,-0.3682 -0.12743,-0.11167 -0.25487,-0.22335 -0.3823,-0.33503 -0.35007,-0.28891 -0.7005,-0.5774 -1.05034,-0.86657 -0.0761,-0.0641 -0.15237,-0.12797 -0.23004,-0.19015 -0.0567,-0.0484 -0.11881,-0.0899 -0.177,-0.13647 -0.10557,-0.083 -0.21083,-0.16663 -0.31971,-0.24539 -0.33295,-0.24567 -0.66828,-0.4881 -1.00202,-0.7327 -0.10466,-0.0728 -0.20924,-0.1457 -0.31535,-0.21636 -0.19037,-0.12803 -0.38145,-0.25501 -0.57212,-0.38261 -0.0627,-0.0371 -0.13125,-0.0622 -0.19819,-0.0903 -0.1231,-0.0543 -0.2462,-0.10891 -0.37217,-0.15635 -0.0728,-0.0224 -0.1434,-0.0515 -0.21698,-0.0711 -0.1133,-0.0311 -0.22671,-0.0619 -0.33933,-0.0954 -0.10562,-0.0303 -0.21123,-0.0607 -0.31795,-0.0868 -0.093,-0.0235 -0.18581,-0.0481 -0.27903,-0.0709 -0.0769,-0.0178 -0.15466,-0.0333 -0.23329,-0.0414 -0.0574,-0.004 -0.11495,-0.0186 -0.17253,-0.0131 z"
       id="path3785"
       inkscape:connector-curvature="0"
       sodipodi:nodetypes="ccccccccccccccccccccccccccccccccccccccccccccccccccccccccccccccccccccccccccccccccccccccccccccccccccccccccccccccccccccccccccccccccccccccccccccccccccccccccccccccccccccccccccccccccccccccccccccccccccccccccccccccccccccccccccccccccccccccccccccccccccccccccccccccccccccccccccccccccccccccccccccccccccccccccccccccccccccccccccccccccccccccccccccccccccccccccccccccccccccccccccccccccccccccccccccccccccccccccccccccccccccccccccccccccccccccccccccccccccccccccccccccccccccccccccccccccccccccccccccccccc" />
  </g>
</svg>
