<?xml version="1.0" encoding="UTF-8" standalone="no"?>
<!-- Created with Inkscape (http://www.inkscape.org/) -->

<svg
   xmlns:dc="http://purl.org/dc/elements/1.1/"
   xmlns:cc="http://creativecommons.org/ns#"
   xmlns:rdf="http://www.w3.org/1999/02/22-rdf-syntax-ns#"
   xmlns:svg="http://www.w3.org/2000/svg"
   xmlns="http://www.w3.org/2000/svg"
   xmlns:sodipodi="http://sodipodi.sourceforge.net/DTD/sodipodi-0.dtd"
   xmlns:inkscape="http://www.inkscape.org/namespaces/inkscape"
   width="39.99987"
   height="40.000088"
   id="svg3412"
   version="1.1"
   inkscape:version="0.48.5 r10040"
   sodipodi:docname="xboxOne.svg"
   inkscape:export-filename="D:\Ivan\Escritorio\DAW\Servidor\UT3\Mockups\Plataformas\xboxOne.png"
   inkscape:export-xdpi="90"
   inkscape:export-ydpi="90">
  <defs
     id="defs3414" />
  <sodipodi:namedview
     id="base"
     pagecolor="#ffffff"
     bordercolor="#666666"
     borderopacity="1.0"
     inkscape:pageopacity="0.0"
     inkscape:pageshadow="2"
     inkscape:zoom="2.8"
     inkscape:cx="52.789493"
     inkscape:cy="-8.5118329"
     inkscape:document-units="px"
     inkscape:current-layer="layer1"
     showgrid="false"
     fit-margin-top="0"
     fit-margin-left="0"
     fit-margin-right="0"
     fit-margin-bottom="0"
     inkscape:window-width="1280"
     inkscape:window-height="737"
     inkscape:window-x="-4"
     inkscape:window-y="-4"
     inkscape:window-maximized="1" />
  <metadata
     id="metadata3417">
    <rdf:RDF>
      <cc:Work
         rdf:about="">
        <dc:format>image/svg+xml</dc:format>
        <dc:type
           rdf:resource="http://purl.org/dc/dcmitype/StillImage" />
        <dc:title></dc:title>
      </cc:Work>
    </rdf:RDF>
  </metadata>
  <g
     inkscape:label="Capa 1"
     inkscape:groupmode="layer"
     id="layer1"
     transform="translate(-553.74128,-492.90664)">
    <path
       style="fill:#ffffff;fill-opacity:1;fill-rule:nonzero;stroke:none;display:inline"
       d="m 573.5232,492.90911 c -0.17699,0.005 -0.35397,0.0102 -0.53095,0.0147 -0.26986,0.0163 -0.53981,0.0311 -0.80947,0.0502 -0.0898,0.007 -0.17888,0.0195 -0.26835,0.029 -0.11721,0.0136 -0.23477,0.0239 -0.35182,0.0388 -0.15483,0.0193 -0.30932,0.0413 -0.46402,0.0617 -0.1477,0.0195 -0.29528,0.0398 -0.44264,0.0617 -0.16955,0.0241 -0.33811,0.0545 -0.50751,0.0796 -0.16373,0.0252 -0.32745,0.0503 -0.49118,0.0755 -0.0782,0.0208 -0.15816,0.0346 -0.23734,0.0513 -0.24782,0.0654 -0.4956,0.13086 -0.7427,0.1989 -0.19657,0.0551 -0.3934,0.10935 -0.58982,0.16496 -0.0809,0.027 -0.16397,0.0462 -0.24466,0.0735 -0.0884,0.03 -0.1778,0.0571 -0.26669,0.0857 -0.0914,0.0292 -0.18389,0.0551 -0.27411,0.0879 -0.12554,0.0447 -0.25287,0.0839 -0.37896,0.12688 -0.0839,0.0268 -0.16693,0.0562 -0.24867,0.0891 -0.10392,0.0397 -0.20697,0.0816 -0.30993,0.12376 -0.19184,0.0803 -0.38367,0.16064 -0.57551,0.24096 -0.19659,0.0931 -0.39339,0.18575 -0.58903,0.28081 -0.18501,0.0916 -0.37057,0.18213 -0.55522,0.27446 -0.15109,0.0753 -0.29968,0.15554 -0.44861,0.23505 -0.17661,0.0965 -0.3508,0.19722 -0.52607,0.29606 -0.21931,0.12656 -0.43862,0.25311 -0.65818,0.37925 -0.10901,0.0779 -0.21422,0.16079 -0.32053,0.24223 -0.006,0.009 -0.002,0.0222 0.0102,0.022 0.003,-0.0154 0.0222,-0.005 0.0293,-0.0147 0.0827,-0.0283 0.16429,-0.0594 0.24592,-0.0905 0.12437,-0.0449 0.24874,-0.0898 0.37313,-0.13461 0.14416,-0.0335 0.28811,-0.0679 0.4324,-0.10075 0.0796,-0.0187 0.16126,-0.0252 0.24251,-0.0322 0.23258,-0.0136 0.46516,-0.0271 0.69773,-0.0407 0.0836,-0.002 0.1665,0.0102 0.24957,0.0172 0.16294,0.0216 0.32594,0.0426 0.48916,0.0619 0.14078,0.0167 0.28154,0.0338 0.422,0.0531 0.133,0.0202 0.26552,0.0436 0.39828,0.0654 0.0827,0.0153 0.16458,0.0339 0.24697,0.0504 0.13074,0.0268 0.26117,0.0551 0.39125,0.0849 0.0956,0.0264 0.1922,0.0482 0.28769,0.0746 0.30388,0.0811 0.60845,0.15973 0.91077,0.24654 0.17855,0.0509 0.35678,0.10279 0.53428,0.15716 0.13533,0.0434 0.272,0.0827 0.40724,0.12639 0.17058,0.0547 0.3397,0.11383 0.50894,0.17251 0.10866,0.0377 0.21717,0.076 0.32494,0.1162 0.12938,0.0464 0.25533,0.10154 0.38307,0.15215 0.19393,0.0786 0.38821,0.15623 0.58191,0.23533 0.0901,0.0375 0.18002,0.0753 0.26863,0.11614 0.11821,0.0561 0.23761,0.10969 0.35529,0.16693 0.17079,0.0819 0.34236,0.16215 0.5119,0.24663 0.18807,0.10414 0.37819,0.20443 0.56799,0.30535 0.30737,0.16736 0.61473,0.33473 0.92211,0.50209 0.0667,0.0397 0.13137,0.085 0.20551,0.11014 0.0596,0.009 0.12616,0.009 0.17619,-0.0294 0.17555,-0.0902 0.35164,-0.17945 0.52687,-0.27034 0.17319,-0.0916 0.34573,-0.18431 0.5179,-0.27774 0.082,-0.04 0.1649,-0.0781 0.24784,-0.11621 0.45732,-0.21573 0.91463,-0.43146 1.37195,-0.6472 0.21323,-0.0939 0.42752,-0.18534 0.64114,-0.27833 0.0792,-0.0335 0.15714,-0.0698 0.23705,-0.10143 0.36995,-0.14255 0.73974,-0.28551 1.10978,-0.42779 0.0779,-0.0301 0.15675,-0.0573 0.23616,-0.0831 0.19175,-0.0638 0.38298,-0.12934 0.57704,-0.18584 0.16951,-0.0517 0.34204,-0.0923 0.5135,-0.13674 0.16386,-0.0421 0.32784,-0.0838 0.49228,-0.12359 0.10301,-0.0247 0.20541,-0.0525 0.30935,-0.0734 0.0879,-0.0184 0.17538,-0.0382 0.26346,-0.0554 0.1,-0.0148 0.19905,-0.0351 0.29879,-0.0513 0.0802,-0.0114 0.16078,-0.0192 0.24143,-0.0261 0.23474,-0.0207 0.46934,-0.0431 0.70433,-0.0606 0.19964,-0.0167 0.39977,-0.0265 0.59957,-0.0412 0.0848,-0.007 0.16995,-0.008 0.25482,-0.0129 0.0759,-0.008 0.15204,0.003 0.22797,0.006 0.0954,0.008 0.19129,0.0132 0.28642,0.0252 0.1,0.0122 0.20054,0.0201 0.29963,0.0386 0.0887,0.014 0.17622,0.0341 0.26279,0.0578 0.13741,0.0374 0.27416,0.0773 0.41126,0.11587 0.10381,0.0391 0.20818,0.0771 0.3091,0.12334 0.0389,0.0176 0.0778,0.0352 0.11663,0.0528 -0.0643,-0.0576 -0.13587,-0.10596 -0.20552,-0.15659 -0.34744,-0.21532 -0.69489,-0.43064 -1.04234,-0.64596 -0.25936,-0.14354 -0.51872,-0.28709 -0.77808,-0.43064 -0.20902,-0.0988 -0.41825,-0.19719 -0.62817,-0.29409 -0.13563,-0.0627 -0.27163,-0.1246 -0.40772,-0.18628 -0.14281,-0.0619 -0.28531,-0.12434 -0.42831,-0.18569 -0.24924,-0.10188 -0.49812,-0.2048 -0.74853,-0.30387 -0.0811,-0.0334 -0.16422,-0.0611 -0.24677,-0.0905 -0.0868,-0.0303 -0.17323,-0.0618 -0.2603,-0.0915 -0.19037,-0.0605 -0.38076,-0.12108 -0.57114,-0.18162 -0.18351,-0.0517 -0.36665,-0.10471 -0.55039,-0.15556 -0.16177,-0.0444 -0.32439,-0.0858 -0.48757,-0.12478 -0.12797,-0.0312 -0.25627,-0.0611 -0.38469,-0.0904 -0.13287,-0.0285 -0.2654,-0.0586 -0.39777,-0.0893 -0.33358,-0.062 -0.66716,-0.12398 -1.00074,-0.18595 -0.19574,-0.0269 -0.39149,-0.0538 -0.58722,-0.0807 -0.27487,-0.0244 -0.54973,-0.049 -0.82458,-0.0734 -0.29418,-0.0175 -0.58832,-0.0358 -0.88252,-0.0528 -0.16655,-0.009 -0.33325,-0.0145 -0.49992,-0.0206 -0.10923,-0.007 -0.21854,-0.0102 -0.32788,-0.0147 -0.0465,-6e-4 -0.0929,5.8e-4 -0.13946,0.002 z m 13.82684,34.59281 c 0.0721,-0.11565 0.0784,-0.25609 0.11745,-0.38414 0.0191,-0.0836 0.0469,-0.16499 0.0612,-0.24957 0.0113,-0.0814 0.0128,-0.16381 0.0237,-0.24528 0.007,-0.0814 0.0168,-0.16318 0.0102,-0.24501 -0.006,-0.0848 -0.0138,-0.16929 -0.0246,-0.25354 -0.009,-0.0876 -0.0196,-0.17503 -0.0329,-0.2621 -0.0135,-0.0874 -0.0312,-0.17395 -0.0524,-0.25981 -0.014,-0.078 -0.0409,-0.15279 -0.0612,-0.22925 -0.0234,-0.088 -0.0467,-0.176 -0.0721,-0.26342 -0.0274,-0.0928 -0.0536,-0.1861 -0.082,-0.27867 -0.0225,-0.0745 -0.0535,-0.14616 -0.0737,-0.22131 -0.0278,-0.0812 -0.0638,-0.15931 -0.0952,-0.23917 -0.0542,-0.14276 -0.11172,-0.28418 -0.17091,-0.4249 -0.0314,-0.0789 -0.0676,-0.1558 -0.10301,-0.23302 -0.042,-0.0916 -0.0911,-0.17949 -0.13695,-0.26914 -0.13404,-0.25636 -0.26666,-0.51348 -0.40037,-0.77003 -0.0426,-0.0808 -0.0851,-0.16171 -0.13055,-0.24103 -0.0802,-0.14219 -0.15581,-0.28686 -0.2383,-0.42771 -0.0694,-0.12305 -0.14249,-0.24401 -0.21477,-0.36542 -0.0844,-0.13441 -0.16695,-0.26995 -0.25368,-0.40285 -0.0712,-0.11002 -0.14741,-0.21676 -0.22172,-0.32474 -0.1433,-0.20686 -0.28661,-0.41373 -0.42992,-0.62059 -0.1397,-0.18721 -0.27835,-0.37521 -0.41875,-0.56189 -0.14445,-0.19105 -0.29016,-0.38113 -0.43815,-0.56945 -0.1654,-0.21175 -0.33078,-0.42349 -0.49618,-0.63525 -0.24537,-0.29313 -0.49044,-0.58653 -0.73599,-0.87949 -0.2145,-0.25062 -0.42837,-0.50178 -0.64326,-0.75206 -0.0875,-0.10053 -0.17517,-0.20087 -0.26472,-0.29957 -0.12053,-0.13391 -0.24113,-0.26779 -0.36433,-0.39925 -0.26841,-0.28913 -0.53715,-0.57796 -0.80519,-0.86741 -0.085,-0.0931 -0.17071,-0.18562 -0.25747,-0.27711 -0.13157,-0.1346 -0.26331,-0.26904 -0.39657,-0.40198 -0.33118,-0.33242 -0.66203,-0.66517 -0.99342,-0.99739 -0.16586,-0.16222 -0.33111,-0.32507 -0.49736,-0.48689 -0.69942,-0.66954 -1.39883,-1.33907 -2.09825,-2.00861 -0.42908,-0.38209 -0.85859,-0.76369 -1.28738,-1.14611 -0.19274,-0.17238 -0.38512,-0.34518 -0.5781,-0.51731 -0.22232,-0.19343 -0.44463,-0.38686 -0.66695,-0.58029 -1.06273,0.91511 -2.12546,1.83021 -3.18818,2.74531 -0.35028,0.31878 -0.70108,0.637 -1.05105,0.95612 -0.12624,0.11617 -0.25339,0.23138 -0.37906,0.34816 -0.14579,0.13887 -0.29239,0.27688 -0.43768,0.41627 -0.22481,0.22006 -0.44962,0.44013 -0.67443,0.66019 -0.49017,0.50322 -0.98035,1.00645 -1.47052,1.50967 -0.30422,0.32216 -0.60845,0.64432 -0.91267,0.96648 -0.0715,0.0813 -0.14386,0.16166 -0.21462,0.2435 -0.3113,0.37862 -0.62321,0.75674 -0.93412,1.13567 -0.23776,0.29144 -0.47551,0.58289 -0.71327,0.87433 -0.0498,0.0658 -0.10256,0.12938 -0.1517,0.19575 -0.21661,0.29692 -0.43393,0.59332 -0.65009,0.89058 -0.0547,0.0761 -0.11059,0.15146 -0.16225,0.22975 -0.0634,0.0951 -0.12969,0.18835 -0.19574,0.28168 -0.076,0.11229 -0.1509,0.22525 -0.22466,0.33899 -0.10708,0.1643 -0.21515,0.32795 -0.32157,0.49265 -0.19148,0.30351 -0.38332,0.60678 -0.57456,0.91044 -0.0605,0.0957 -0.11483,0.19498 -0.17172,0.29278 -0.0475,0.0762 -0.0836,0.15833 -0.12238,0.23904 -0.19517,0.40774 -0.38856,0.81631 -0.58169,1.22502 -0.0366,0.0838 -0.0715,0.16831 -0.10584,0.25301 -0.0406,0.0976 -0.0812,0.19509 -0.12174,0.29263 -0.0355,0.0947 -0.0696,0.19004 -0.10764,0.28383 -0.0477,0.1317 -0.0929,0.26425 -0.13947,0.39638 -0.0261,0.0856 -0.0522,0.17128 -0.0783,0.25691 -0.0219,0.0885 -0.0423,0.17746 -0.0612,0.2667 -0.0202,0.0936 -0.0418,0.187 -0.0614,0.28077 -0.017,0.0811 -0.0292,0.16301 -0.0389,0.24529 -0.0118,0.11002 -0.0224,0.2201 -0.0318,0.33031 -10e-4,0.0785 0.006,0.15667 0.0102,0.2349 0.007,0.0865 0.029,0.17085 0.0434,0.25626 0.0147,0.0811 0.0312,0.16184 0.0524,0.24155 0.0228,0.0929 0.0444,0.18638 0.073,0.27783 -0.0216,-0.1072 -0.0285,0.0371 0.15659,0.21776 0.11172,0.0987 0.22348,0.19737 0.33521,0.29607 0.17372,0.14354 0.34745,0.28709 0.52117,0.43063 0.11048,0.0855 0.2202,0.1721 0.33121,0.25696 0.18093,0.13725 0.36631,0.2685 0.55097,0.40066 0.12475,0.0877 0.24841,0.17705 0.37258,0.2656 0.16654,0.11474 0.33307,0.22948 0.49959,0.34422 0.3238,0.20471 0.64759,0.40944 0.97139,0.61415 0.0739,0.0443 0.14893,0.0868 0.2251,0.12723 0.0985,0.0517 0.19703,0.10313 0.29685,0.15209 0.0984,0.0487 0.1984,0.0937 0.29747,0.14091 0.28171,0.13207 0.56302,0.26501 0.84498,0.39654 0.10539,0.0484 0.2103,0.0978 0.31599,0.14553 0.10595,0.045 0.21161,0.0905 0.31715,0.13631 0.17763,0.067 0.35502,0.13474 0.53184,0.20394 0.0915,0.0356 0.18291,0.0717 0.27555,0.10437 0.10324,0.0373 0.20622,0.0755 0.30967,0.11229 0.12845,0.0429 0.2563,0.0875 0.38578,0.12721 0.14651,0.0452 0.29183,0.0943 0.43747,0.14226 0.22674,0.0604 0.45347,0.12071 0.68021,0.18107 0.13021,0.0314 0.26071,0.0616 0.39148,0.0906 0.17836,0.0403 0.35662,0.0811 0.5352,0.1203 0.10064,0.0214 0.20177,0.0397 0.3028,0.0589 0.11751,0.0225 0.23475,0.0465 0.35244,0.068 0.13659,0.0236 0.27318,0.0473 0.40977,0.071 0.14668,0.0183 0.29323,0.0375 0.43999,0.0553 0.0871,0.008 0.17377,0.0179 0.26021,0.0305 0.0819,0.009 0.16427,0.0123 0.24614,0.0215 0.0879,0.008 0.17528,0.0226 0.2637,0.024 0.0941,0.005 0.18805,0.0129 0.2821,0.019 0.0864,0.006 0.17258,0.0133 0.25901,0.0172 0.37001,0.014 0.74002,0.0284 1.11011,0.0406 0.1375,0.005 0.27497,0.0102 0.41255,0.0121 0.0878,0.006 0.17554,-0.003 0.2633,-0.006 0.14784,-0.006 0.29552,-0.0151 0.44314,-0.0252 0.17327,-0.0118 0.3464,-0.0254 0.51941,-0.0406 0.15059,-0.0121 0.301,-0.0262 0.45136,-0.0408 0.14934,-0.0137 0.29851,-0.0291 0.4472,-0.0486 0.15044,-0.0199 0.30079,-0.0404 0.45102,-0.0617 0.34376,-0.0513 0.68735,-0.1038 1.03116,-0.15479 0.16392,-0.0375 0.32786,-0.0751 0.4918,-0.11251 0.31637,-0.0838 0.63297,-0.16672 0.94919,-0.25108 0.12194,-0.0332 0.24406,-0.0658 0.36515,-0.1021 0.10528,-0.0308 0.21085,-0.0608 0.31523,-0.0947 0.13009,-0.0471 0.26255,-0.0874 0.39305,-0.1335 0.18954,-0.0651 0.37857,-0.13179 0.5673,-0.19924 0.13742,-0.0498 0.27472,-0.1 0.4123,-0.14927 0.0793,-0.0302 0.15499,-0.0684 0.23245,-0.10279 0.0819,-0.0317 0.1631,-0.065 0.24295,-0.10154 0.0899,-0.043 0.18114,-0.083 0.27152,-0.12496 0.27125,-0.13124 0.54106,-0.26539 0.81168,-0.39794 0.0915,-0.0456 0.18436,-0.0885 0.27402,-0.13775 0.30805,-0.16275 0.61215,-0.33282 0.91758,-0.50041 0.15008,-0.0856 0.3005,-0.17065 0.45021,-0.25691 0.10505,-0.068 0.2106,-0.1352 0.31521,-0.20383 0.14415,-0.0989 0.28885,-0.1971 0.43351,-0.29532 0.0795,-0.0596 0.15855,-0.11973 0.23988,-0.17681 0.19799,-0.14242 0.39086,-0.29178 0.58468,-0.43978 0.0707,-0.0557 0.1438,-0.10844 0.21392,-0.16496 0.13988,-0.11389 0.27582,-0.23251 0.41447,-0.34787 0.10143,-0.0854 0.20219,-0.17139 0.30092,-0.25981 m 2.75123,-2.93214 c 0.0937,-0.12316 0.18672,-0.24697 0.27943,-0.37096 0.0781,-0.10821 0.15699,-0.21594 0.23254,-0.326 0.0706,-0.10086 0.14105,-0.20179 0.20929,-0.30426 0.058,-0.0861 0.1168,-0.17158 0.17206,-0.25942 0.14909,-0.23213 0.29885,-0.46384 0.44753,-0.69623 0.0626,-0.0996 0.12523,-0.19917 0.18784,-0.29875 0.069,-0.12747 0.13876,-0.25446 0.20715,-0.38221 0.0797,-0.15672 0.16033,-0.31296 0.23943,-0.46997 0.0993,-0.20863 0.19909,-0.417 0.29618,-0.62667 0.0485,-0.10448 0.0979,-0.20857 0.14633,-0.31306 0.0369,-0.0814 0.0715,-0.16372 0.10494,-0.24649 0.0675,-0.16386 0.13494,-0.32772 0.20242,-0.49158 0.0737,-0.19644 0.14649,-0.39324 0.22081,-0.58945 0.0404,-0.10425 0.0821,-0.20792 0.11936,-0.31334 0.0317,-0.0823 0.0596,-0.16582 0.0827,-0.25093 0.0266,-0.0855 0.0557,-0.17016 0.0824,-0.25565 0.0274,-0.0859 0.0525,-0.17253 0.0744,-0.25999 0.0715,-0.27357 0.14515,-0.54657 0.21517,-0.82052 0.0319,-0.12348 0.0639,-0.24695 0.0958,-0.37043 0.0484,-0.21824 0.0907,-0.43775 0.13496,-0.65684 0.0382,-0.19049 0.0764,-0.38096 0.11461,-0.57145 0.0212,-0.14844 0.0424,-0.29688 0.0637,-0.44532 0.014,-0.13825 0.0253,-0.27679 0.0429,-0.41466 0.0159,-0.13419 0.0318,-0.26838 0.0477,-0.40257 0.0102,-0.12222 0.0209,-0.24437 0.0302,-0.36662 0.0117,-0.19737 0.0225,-0.39478 0.0345,-0.59212 0.0102,-0.12128 0.0167,-0.24279 0.0199,-0.36442 0.0115,-0.33619 0.0224,-0.67241 0.0328,-1.00863 -0.007,-0.14437 -0.013,-0.28873 -0.0196,-0.43309 -0.03,-0.37226 -0.0591,-0.74459 -0.0913,-1.11668 -0.0102,-0.11274 -0.0179,-0.22561 -0.0311,-0.33802 -0.0184,-0.15592 -0.038,-0.31172 -0.0577,-0.4675 -0.0265,-0.1977 -0.0529,-0.3954 -0.0794,-0.59311 -0.0327,-0.19003 -0.0652,-0.38007 -0.0978,-0.5701 -0.0484,-0.22967 -0.10086,-0.45842 -0.1517,-0.68756 -0.0356,-0.13023 -0.0711,-0.26049 -0.10403,-0.39141 -0.0498,-0.19038 -0.102,-0.38007 -0.15284,-0.57018 -0.0538,-0.17357 -0.10765,-0.34714 -0.16371,-0.52 -0.0395,-0.11354 -0.0786,-0.22717 -0.11554,-0.34155 -0.0491,-0.14989 -0.10087,-0.29887 -0.15348,-0.44759 -0.0354,-0.1029 -0.0727,-0.20522 -0.10697,-0.30853 -0.0278,-0.0807 -0.0625,-0.15908 -0.0925,-0.23908 -0.0519,-0.12898 -0.1038,-0.25797 -0.15569,-0.38696 -0.0856,-0.18921 -0.17128,-0.37843 -0.25692,-0.56765 -0.13529,-0.27748 -0.27029,-0.55511 -0.40731,-0.83174 -0.0492,-0.099 -0.10018,-0.1973 -0.15463,-0.29365 -0.11745,-0.21144 -0.23325,-0.4238 -0.35316,-0.63386 -0.0485,-0.0876 -0.0943,-0.17676 -0.14641,-0.26237 -0.0814,-0.13908 -0.16452,-0.27722 -0.24752,-0.41539 -0.0815,-0.1256 -0.16313,-0.25121 -0.24469,-0.37681 -0.13457,-0.18758 -0.26915,-0.37517 -0.40372,-0.56276 -0.1313,-0.17291 -0.26262,-0.34581 -0.39393,-0.51872 -0.0611,-0.0762 -0.12379,-0.15118 -0.18373,-0.2283 -0.05,-0.0647 -0.10188,-0.12785 -0.1533,-0.19131 -0.0763,-0.0918 -0.15249,-0.18373 -0.23092,-0.27374 -0.11274,-0.13023 -0.22215,-0.26332 -0.33686,-0.39184 -0.0598,-0.0679 -0.11891,-0.13629 -0.18119,-0.20188 -0.12882,-0.1382 -0.25594,-0.27799 -0.38705,-0.41403 -0.0888,-0.0936 -0.18278,-0.18202 -0.27421,-0.27299 -0.38947,-0.33274 -1.22227,0.27563 -0.0585,-0.0396 -0.066,-0.0406 -0.14184,-0.0606 -0.21532,-0.0832 -0.0848,-0.0223 -0.1738,-0.0202 -0.26058,-0.0302 -0.0802,-0.006 -0.1606,6e-4 -0.24009,0.0114 -0.0801,0.0119 -0.16105,0.0182 -0.23995,0.0367 -0.0824,0.0188 -0.16436,0.0397 -0.24443,0.0669 -0.0844,0.0253 -0.16776,0.0538 -0.25055,0.0839 -0.14209,0.0518 -0.28398,0.10404 -0.42578,0.15656 -0.0819,0.037 -0.16443,0.0723 -0.24468,0.11251 -0.0936,0.0444 -0.18529,0.093 -0.27733,0.14061 -0.0823,0.0436 -0.16459,0.0875 -0.24838,0.12835 -0.0724,0.0387 -0.14291,0.0808 -0.21548,0.11923 -0.083,0.0453 -0.16371,0.0948 -0.24543,0.14235 -0.24561,0.14427 -0.48973,0.29103 -0.73347,0.43839 -0.19462,0.13914 -0.38971,0.27763 -0.58403,0.41716 -0.18866,0.1407 -0.37732,0.28139 -0.56597,0.42208 -0.0666,0.0544 -0.13429,0.10743 -0.20309,0.15905 -0.21971,0.18422 -0.43974,0.36806 -0.65925,0.55252 -0.19092,0.16451 -0.38258,0.32815 -0.573,0.49323 -0.17803,0.15672 -0.35892,0.31015 -0.53673,0.4671 -0.0665,0.0569 -0.12783,0.1193 -0.19174,0.17895 -0.20513,0.19549 -0.41182,0.38935 -0.61301,0.5889 -0.0984,0.0974 -0.19583,0.19583 -0.29605,0.29139 -0.11365,0.10833 -0.22579,0.21821 -0.33861,0.32738 -0.0534,0.0449 -0.10459,0.11115 -0.0924,0.18511 0.009,0.0799 0.0763,0.13108 0.11898,0.19331 0.24278,0.31032 0.4829,0.62271 0.72446,0.93398 0.11559,0.14956 0.23172,0.2987 0.34701,0.44851 0.32528,0.43542 0.65114,0.87043 0.97607,1.30611 0.17402,0.23493 0.34864,0.46942 0.52228,0.70461 0.14647,0.202 0.29391,0.40331 0.43975,0.60576 0.22379,0.31351 0.44827,0.62653 0.67163,0.94034 0.14527,0.20678 0.29103,0.41324 0.436,0.62023 0.17522,0.25657 0.34907,0.51408 0.52052,0.77319 0.25453,0.38291 0.50858,0.76615 0.76181,1.14993 0.14592,0.22517 0.29273,0.44978 0.43809,0.6753 0.11579,0.18196 0.23206,0.36362 0.34578,0.54687 0.20232,0.32316 0.40418,0.64664 0.60523,0.97059 0.0858,0.14014 0.17071,0.28088 0.25716,0.42063 0.0464,0.0691 0.0902,0.13969 0.12886,0.21337 0.0562,0.10018 0.11307,0.19996 0.16646,0.30166 0.26217,0.48971 0.52376,0.97973 0.78569,1.46957 0.12621,0.26576 0.25354,0.53099 0.37901,0.79711 0.10878,0.23013 0.21394,0.46195 0.32076,0.69299 0.0703,0.16074 0.13886,0.32219 0.20692,0.48388 0.0356,0.0815 0.0677,0.16458 0.10007,0.24752 0.0625,0.15906 0.124,0.31855 0.1873,0.47732 0.0259,0.0848 0.059,0.16707 0.0872,0.25109 0.0423,0.12199 0.0853,0.24374 0.12816,0.3655 0.0326,0.10822 0.0676,0.21569 0.0953,0.32526 0.0229,0.0847 0.0445,0.16966 0.0646,0.25506 0.0447,0.18552 0.0902,0.37082 0.13215,0.55697 0.07,0.30724 0.13853,0.6148 0.2077,0.92221 0.0291,0.13463 0.0593,0.26904 0.0878,0.40381 0.0235,0.12499 0.0471,0.24999 0.0708,0.37497 0.0125,0.0854 0.0222,0.17097 0.0294,0.25692 0.0113,0.11405 0.0244,0.228 0.0294,0.34255 0.008,0.12522 0.0184,0.25036 0.0235,0.37578 0.006,0.10471 0.009,0.20947 0.0132,0.31422 0.002,0.0821 -0.008,0.16376 -0.0155,0.24537 -0.0156,0.15427 -0.0262,0.309 -0.0414,0.46329 -0.0113,0.0973 -0.0201,0.19462 -0.0287,0.29208 -0.006,0.0779 -0.0305,0.152 -0.0534,0.22604 -0.0213,0.0823 -0.0642,0.15629 -0.11149,0.22614 m -29.27256,-26.79439 c -0.0711,0.006 -0.14503,-0.006 -0.21287,0.022 -0.0727,0.0387 -0.12747,0.10256 -0.1884,0.1566 -0.22429,0.22347 -0.44858,0.44694 -0.67288,0.67042 -0.0848,0.0897 -0.16963,0.17943 -0.25446,0.26914 -0.0613,0.0727 -0.12201,0.14577 -0.18079,0.22049 -0.16443,0.20251 -0.32975,0.40429 -0.49452,0.60653 -0.14355,0.18596 -0.2871,0.37191 -0.43064,0.55788 -0.0595,0.0816 -0.11677,0.16482 -0.17862,0.24467 -0.0496,0.0677 -0.097,0.137 -0.14191,0.20797 -0.0768,0.11524 -0.1526,0.23104 -0.22755,0.34745 -0.0513,0.0758 -0.10358,0.151 -0.15184,0.22878 -0.11809,0.1841 -0.23847,0.36673 -0.35643,0.55091 -0.1038,0.16095 -0.20761,0.3219 -0.31141,0.48286 -0.0422,0.0767 -0.083,0.15397 -0.12216,0.23219 -0.10267,0.19589 -0.20567,0.39165 -0.30847,0.58749 -0.0989,0.20992 -0.19855,0.41952 -0.29702,0.62965 -0.0553,0.12406 -0.11127,0.24778 -0.1661,0.37204 -0.0828,0.19599 -0.16593,0.39181 -0.24646,0.58873 -0.0486,0.11803 -0.0982,0.23574 -0.14436,0.35478 -0.0349,0.0824 -0.0649,0.16666 -0.0942,0.25115 -0.0884,0.25101 -0.17801,0.50156 -0.26786,0.75204 -0.0506,0.16823 -0.10268,0.33604 -0.15027,0.50516 -0.0303,0.10618 -0.0617,0.21204 -0.0905,0.31862 -0.0381,0.15381 -0.0736,0.30825 -0.1098,0.46253 -0.0379,0.17148 -0.0762,0.34285 -0.11138,0.51492 -0.0551,0.26416 -0.11183,0.52798 -0.16255,0.79299 -0.0363,0.19737 -0.0739,0.39448 -0.11206,0.59151 -0.0149,0.0892 -0.0261,0.17882 -0.036,0.26867 -0.013,0.10572 -0.027,0.21136 -0.0369,0.31747 -0.0157,0.14043 -0.0231,0.2816 -0.0362,0.42227 -0.0146,0.16002 -0.0269,0.32021 -0.0382,0.48049 -0.0148,0.22059 -0.0293,0.4412 -0.0436,0.66182 -0.008,0.27822 -0.0139,0.55648 -0.0197,0.83474 -0.002,0.0945 -0.003,0.18903 -0.007,0.28346 0.007,0.16921 0.0209,0.33797 0.0319,0.50692 0.0152,0.20614 0.0258,0.41256 0.0416,0.61864 0.0139,0.19524 0.0317,0.39018 0.0473,0.58528 0.009,0.10189 0.0208,0.20353 0.031,0.30532 0.0242,0.18366 0.0477,0.36743 0.0749,0.55071 0.0265,0.18592 0.0509,0.37209 0.0789,0.55777 0.0102,0.0866 0.0292,0.17161 0.0473,0.2568 0.0456,0.21777 0.091,0.43555 0.13661,0.65332 0.0219,0.0839 0.0415,0.16827 0.0585,0.25327 0.0189,0.084 0.0399,0.16744 0.0631,0.25037 0.0416,0.15313 0.0825,0.30647 0.1247,0.45945 0.068,0.22993 0.13496,0.46014 0.20341,0.6899 0.0596,0.19138 0.12965,0.37922 0.19598,0.5683 0.0672,0.18954 0.1339,0.37925 0.20353,0.5679 0.0331,0.0879 0.0666,0.17555 0.10075,0.26297 0.0794,0.19361 0.16,0.38669 0.23848,0.58066 0.0448,0.10132 0.0948,0.20025 0.14267,0.30006 0.0759,0.15731 0.15303,0.31399 0.23102,0.47026 0.065,0.13037 0.1282,0.26162 0.19506,0.39104 0.0514,0.0971 0.10358,0.19386 0.1559,0.29052 0.10776,0.1924 0.21501,0.38514 0.3232,0.57732 0.0556,0.0959 0.11161,0.19175 0.1697,0.28624 0.0435,0.0692 0.0803,0.14221 0.11671,0.21523 0.0423,0.0734 0.0897,0.14357 0.13457,0.21532 0.0831,0.12418 0.1691,0.24633 0.25341,0.36968 0.0698,0.10052 0.13805,0.20203 0.20869,0.3019 0.12374,0.17059 0.24659,0.34183 0.37106,0.51187 0.0518,0.0709 0.1064,0.1397 0.16179,0.20781 0.0503,0.0622 0.0673,0.0908 0.11656,0.15389 -0.0404,-0.0615 -0.0498,-0.0902 -0.0633,-0.1637 -0.005,-0.0787 -0.008,-0.15788 -0.006,-0.23696 10e-6,-0.15381 -0.007,-0.30755 -0.005,-0.46135 0.002,-0.0913 0.007,-0.18238 0.0102,-0.27358 0.002,-0.087 0.0113,-0.17355 0.0173,-0.26031 0.0237,-0.23869 0.0408,-0.478 0.066,-0.71655 0.0127,-0.12438 0.0239,-0.24892 0.0396,-0.37298 0.0228,-0.191 0.053,-0.381 0.0769,-0.57186 0.0102,-0.0871 0.025,-0.17368 0.0407,-0.25998 0.0259,-0.13647 0.0484,-0.27359 0.076,-0.40973 0.0263,-0.12474 0.0594,-0.24793 0.0887,-0.37199 0.0546,-0.22725 0.1116,-0.45391 0.16759,-0.68083 0.0677,-0.23081 0.1354,-0.46164 0.20308,-0.69245 0.0425,-0.12841 0.084,-0.25718 0.12719,-0.38538 0.0621,-0.17161 0.1225,-0.34386 0.18758,-0.51437 0.0384,-0.10154 0.0749,-0.2038 0.11679,-0.30395 0.0882,-0.21912 0.17815,-0.43751 0.26823,-0.65587 0.0395,-0.0876 0.0778,-0.17568 0.115,-0.26424 0.0943,-0.20368 0.18635,-0.40846 0.28425,-0.61047 0.0637,-0.13004 0.12877,-0.25934 0.19466,-0.38825 0.0563,-0.10629 0.11149,-0.21313 0.17061,-0.31787 0.0758,-0.1376 0.15174,-0.27512 0.22977,-0.4115 0.14078,-0.24977 0.28537,-0.49737 0.42808,-0.74605 0.0839,-0.145 0.16675,-0.29057 0.2512,-0.43523 0.19902,-0.33436 0.39804,-0.66872 0.59705,-1.00306 0.19023,-0.30168 0.38007,-0.60359 0.57054,-0.9051 0.69149,-1.0685 1.38297,-2.13701 2.07446,-3.20553 0.33151,-0.49356 0.66247,-0.98752 0.99434,-1.48086 0.082,-0.12331 0.16894,-0.24309 0.25269,-0.36514 0.16702,-0.2405 0.3302,-0.48361 0.49508,-0.72557 0.20726,-0.2872 0.41551,-0.57371 0.62209,-0.8614 0.13315,-0.18682 0.27265,-0.369 0.41025,-0.55253 0.13139,-0.17465 0.26276,-0.3493 0.39414,-0.52394 0.10245,-0.12604 0.20277,-0.2538 0.30769,-0.3778 0.0715,-0.0861 0.14323,-0.17191 0.21805,-0.25508 0.0574,-0.0643 0.11674,-0.12702 0.17649,-0.18925 0.0493,-0.0589 0.11512,-0.10346 0.15866,-0.16665 0.0254,-0.037 0.0371,-0.0834 0.0224,-0.12696 -0.0167,-0.0621 -0.069,-0.10573 -0.11036,-0.15213 -0.0605,-0.0611 -0.12022,-0.1229 -0.17872,-0.18586 -0.11274,-0.11273 -0.22847,-0.22246 -0.34132,-0.33511 -0.0943,-0.0936 -0.18981,-0.18616 -0.28831,-0.27541 -0.14976,-0.13665 -0.29974,-0.27308 -0.45005,-0.40911 -0.14158,-0.12408 -0.28318,-0.24817 -0.42477,-0.37226 -0.38896,-0.32101 -0.77832,-0.64155 -1.16703,-0.96286 -0.0846,-0.0712 -0.16929,-0.14219 -0.25559,-0.21127 -0.063,-0.0538 -0.13201,-0.0999 -0.19666,-0.15165 -0.11731,-0.0923 -0.23426,-0.18514 -0.35523,-0.27265 -0.36994,-0.27298 -0.74253,-0.54234 -1.11334,-0.81411 -0.11629,-0.0808 -0.23249,-0.1619 -0.35038,-0.24041 -0.21152,-0.14226 -0.42383,-0.28334 -0.63568,-0.42512 -0.0697,-0.0413 -0.14584,-0.0691 -0.22021,-0.1003 -0.13677,-0.0604 -0.27355,-0.12101 -0.41352,-0.17372 -0.0808,-0.0249 -0.15932,-0.0572 -0.24108,-0.079 -0.12589,-0.0346 -0.2519,-0.0688 -0.37703,-0.10595 -0.11735,-0.0337 -0.2347,-0.0674 -0.35327,-0.0965 -0.10335,-0.0261 -0.20646,-0.0535 -0.31004,-0.0788 -0.0855,-0.0198 -0.17184,-0.037 -0.2592,-0.046 -0.0638,-0.005 -0.12772,-0.0207 -0.1917,-0.0146 z"
       id="path3785"
       inkscape:connector-curvature="0"
       sodipodi:nodetypes="ccccccccccccccccccccccccccccccccccccccccccccccccccccccccccccccccccccccccccccccccccccccccccccccccccccccccccccccccccccccccccccccccccccccccccccccccccccccccccccccccccccccccccccccccccccccccccccccccccccccccccccccccccccccccccccccccccccccccccccccccccccccccccccccccccccccccccccccccccccccccccccccccccccccccccccccccccccccccccccccccccccccccccccccccccccccccccccccccccccccccccccccccccccccccccccccccccccccccccccccccccccccccccccccccccccccccccccccccccccccccccccccccccccccccccccccccccccccccccccccccc" />
  </g>
</svg>
